<mxfile host="Electron" agent="Mozilla/5.0 (Windows NT 10.0; Win64; x64) AppleWebKit/537.36 (KHTML, like Gecko) draw.io/26.2.15 Chrome/134.0.6998.205 Electron/35.2.1 Safari/537.36" version="26.2.15">
  <diagram id="C5RBs43oDa-KdzZeNtuy" name="Page-1">
    <mxGraphModel dx="1455" dy="1915" grid="1" gridSize="10" guides="1" tooltips="1" connect="1" arrows="1" fold="1" page="1" pageScale="1" pageWidth="827" pageHeight="1169" background="none" math="0" shadow="0">
      <root>
        <mxCell id="WIyWlLk6GJQsqaUBKTNV-0" />
        <mxCell id="WIyWlLk6GJQsqaUBKTNV-1" parent="WIyWlLk6GJQsqaUBKTNV-0" />
        <mxCell id="oIUY9aex-8VRX2s5J3Bi-11" style="edgeStyle=none;rounded=0;orthogonalLoop=1;jettySize=auto;html=1;exitX=1;exitY=0.5;exitDx=0;exitDy=0;entryX=0;entryY=0.5;entryDx=0;entryDy=0;" parent="WIyWlLk6GJQsqaUBKTNV-1" source="oIUY9aex-8VRX2s5J3Bi-1" target="oIUY9aex-8VRX2s5J3Bi-10" edge="1">
          <mxGeometry relative="1" as="geometry" />
        </mxCell>
        <mxCell id="oIUY9aex-8VRX2s5J3Bi-1" value="F_WF_Reset" style="rounded=1;whiteSpace=wrap;html=1;" parent="WIyWlLk6GJQsqaUBKTNV-1" vertex="1">
          <mxGeometry x="520" y="-275" width="120" height="60" as="geometry" />
        </mxCell>
        <mxCell id="kC5EYQMPbJ4mH9MVDNyT-7" style="edgeStyle=elbowEdgeStyle;rounded=0;orthogonalLoop=1;jettySize=auto;html=1;exitX=1;exitY=0.5;exitDx=0;exitDy=0;entryX=0;entryY=0.5;entryDx=0;entryDy=0;" parent="WIyWlLk6GJQsqaUBKTNV-1" source="oIUY9aex-8VRX2s5J3Bi-2" target="oIUY9aex-8VRX2s5J3Bi-13" edge="1">
          <mxGeometry relative="1" as="geometry">
            <mxPoint x="810" y="125" as="targetPoint" />
          </mxGeometry>
        </mxCell>
        <mxCell id="oIUY9aex-8VRX2s5J3Bi-2" value="F_WF_Trigger" style="rounded=1;whiteSpace=wrap;html=1;" parent="WIyWlLk6GJQsqaUBKTNV-1" vertex="1">
          <mxGeometry x="520" y="-5" width="120" height="60" as="geometry" />
        </mxCell>
        <mxCell id="oIUY9aex-8VRX2s5J3Bi-17" style="edgeStyle=none;rounded=0;orthogonalLoop=1;jettySize=auto;html=1;exitX=1;exitY=0.5;exitDx=0;exitDy=0;entryX=0;entryY=0.5;entryDx=0;entryDy=0;" parent="WIyWlLk6GJQsqaUBKTNV-1" source="oIUY9aex-8VRX2s5J3Bi-10" target="oIUY9aex-8VRX2s5J3Bi-16" edge="1">
          <mxGeometry relative="1" as="geometry" />
        </mxCell>
        <mxCell id="oIUY9aex-8VRX2s5J3Bi-10" value="WF_Judge_From_Static_To_Dynamic" style="ellipse;whiteSpace=wrap;html=1;" parent="WIyWlLk6GJQsqaUBKTNV-1" vertex="1">
          <mxGeometry x="810" y="-275" width="220" height="60" as="geometry" />
        </mxCell>
        <mxCell id="kC5EYQMPbJ4mH9MVDNyT-13" style="edgeStyle=elbowEdgeStyle;rounded=0;orthogonalLoop=1;jettySize=auto;html=1;exitX=1;exitY=0.5;exitDx=0;exitDy=0;entryX=0;entryY=0.5;entryDx=0;entryDy=0;" parent="WIyWlLk6GJQsqaUBKTNV-1" source="oIUY9aex-8VRX2s5J3Bi-13" target="oIUY9aex-8VRX2s5J3Bi-58" edge="1">
          <mxGeometry relative="1" as="geometry" />
        </mxCell>
        <mxCell id="oIUY9aex-8VRX2s5J3Bi-13" value="WF_Judge_From_Dynamic_To_Static" style="ellipse;whiteSpace=wrap;html=1;" parent="WIyWlLk6GJQsqaUBKTNV-1" vertex="1">
          <mxGeometry x="810" y="135" width="220" height="60" as="geometry" />
        </mxCell>
        <mxCell id="oIUY9aex-8VRX2s5J3Bi-16" value="WF_Status" style="rhombus;whiteSpace=wrap;html=1;" parent="WIyWlLk6GJQsqaUBKTNV-1" vertex="1">
          <mxGeometry x="1100" y="-285" width="80" height="80" as="geometry" />
        </mxCell>
        <mxCell id="kC5EYQMPbJ4mH9MVDNyT-5" style="edgeStyle=orthogonalEdgeStyle;rounded=0;orthogonalLoop=1;jettySize=auto;html=1;exitX=1;exitY=0.5;exitDx=0;exitDy=0;" parent="WIyWlLk6GJQsqaUBKTNV-1" source="oIUY9aex-8VRX2s5J3Bi-18" edge="1">
          <mxGeometry relative="1" as="geometry">
            <mxPoint x="1380.3809523809523" y="-355" as="targetPoint" />
            <Array as="points">
              <mxPoint x="1420" y="-305" />
              <mxPoint x="1420" y="-355" />
            </Array>
          </mxGeometry>
        </mxCell>
        <mxCell id="oIUY9aex-8VRX2s5J3Bi-18" value="F_WF_Reset" style="rounded=1;whiteSpace=wrap;html=1;" parent="WIyWlLk6GJQsqaUBKTNV-1" vertex="1">
          <mxGeometry x="1260" y="-335" width="120" height="60" as="geometry" />
        </mxCell>
        <mxCell id="oIUY9aex-8VRX2s5J3Bi-19" value="F_WF_Trigger" style="rounded=1;whiteSpace=wrap;html=1;" parent="WIyWlLk6GJQsqaUBKTNV-1" vertex="1">
          <mxGeometry x="1260" y="-215" width="120" height="60" as="geometry" />
        </mxCell>
        <mxCell id="oIUY9aex-8VRX2s5J3Bi-39" style="edgeStyle=orthogonalEdgeStyle;rounded=0;orthogonalLoop=1;jettySize=auto;html=1;entryX=0;entryY=0.25;entryDx=0;entryDy=0;exitX=1;exitY=0.5;exitDx=0;exitDy=0;" parent="WIyWlLk6GJQsqaUBKTNV-1" source="oIUY9aex-8VRX2s5J3Bi-19" target="oIUY9aex-8VRX2s5J3Bi-2" edge="1">
          <mxGeometry relative="1" as="geometry">
            <mxPoint x="1440" y="-185" as="sourcePoint" />
            <mxPoint x="1319.44" y="-85" as="targetPoint" />
            <Array as="points">
              <mxPoint x="1420" y="-185" />
              <mxPoint x="1420" y="-135" />
              <mxPoint x="450" y="-135" />
              <mxPoint x="450" y="10" />
            </Array>
          </mxGeometry>
        </mxCell>
        <mxCell id="oIUY9aex-8VRX2s5J3Bi-40" style="edgeStyle=elbowEdgeStyle;rounded=0;orthogonalLoop=1;jettySize=auto;html=1;entryX=0;entryY=0.25;entryDx=0;entryDy=0;" parent="WIyWlLk6GJQsqaUBKTNV-1" target="oIUY9aex-8VRX2s5J3Bi-1" edge="1">
          <mxGeometry relative="1" as="geometry">
            <mxPoint x="1390" y="-355" as="sourcePoint" />
            <mxPoint x="500" y="-325" as="targetPoint" />
            <Array as="points">
              <mxPoint x="450" y="-365" />
            </Array>
          </mxGeometry>
        </mxCell>
        <mxCell id="kC5EYQMPbJ4mH9MVDNyT-8" style="edgeStyle=elbowEdgeStyle;rounded=0;orthogonalLoop=1;jettySize=auto;html=1;exitX=1;exitY=0.5;exitDx=0;exitDy=0;entryX=0;entryY=0.5;entryDx=0;entryDy=0;" parent="WIyWlLk6GJQsqaUBKTNV-1" source="oIUY9aex-8VRX2s5J3Bi-48" target="oIUY9aex-8VRX2s5J3Bi-13" edge="1">
          <mxGeometry relative="1" as="geometry" />
        </mxCell>
        <mxCell id="oIUY9aex-8VRX2s5J3Bi-48" value="F_WF_AddUp" style="rounded=1;whiteSpace=wrap;html=1;" parent="WIyWlLk6GJQsqaUBKTNV-1" vertex="1">
          <mxGeometry x="520" y="265" width="120" height="60" as="geometry" />
        </mxCell>
        <mxCell id="oIUY9aex-8VRX2s5J3Bi-49" value="F_WF_Trigger" style="rounded=1;whiteSpace=wrap;html=1;" parent="WIyWlLk6GJQsqaUBKTNV-1" vertex="1">
          <mxGeometry x="1260" y="135" width="120" height="60" as="geometry" />
        </mxCell>
        <mxCell id="oIUY9aex-8VRX2s5J3Bi-50" value="F_WF_AddUp" style="rounded=1;whiteSpace=wrap;html=1;" parent="WIyWlLk6GJQsqaUBKTNV-1" vertex="1">
          <mxGeometry x="1260" y="265" width="120" height="60" as="geometry" />
        </mxCell>
        <mxCell id="yEXaIvPTRKwIhCIDsL8K-19" style="edgeStyle=orthogonalEdgeStyle;rounded=0;orthogonalLoop=1;jettySize=auto;html=1;exitX=1;exitY=0.5;exitDx=0;exitDy=0;entryX=0;entryY=0.5;entryDx=0;entryDy=0;" parent="WIyWlLk6GJQsqaUBKTNV-1" source="oIUY9aex-8VRX2s5J3Bi-51" target="oIUY9aex-8VRX2s5J3Bi-80" edge="1">
          <mxGeometry relative="1" as="geometry" />
        </mxCell>
        <mxCell id="oIUY9aex-8VRX2s5J3Bi-51" value="F_WF_Finish" style="rounded=1;whiteSpace=wrap;html=1;" parent="WIyWlLk6GJQsqaUBKTNV-1" vertex="1">
          <mxGeometry x="1260" y="5" width="120" height="60" as="geometry" />
        </mxCell>
        <mxCell id="kC5EYQMPbJ4mH9MVDNyT-14" style="edgeStyle=elbowEdgeStyle;rounded=0;orthogonalLoop=1;jettySize=auto;html=1;exitX=1;exitY=0.5;exitDx=0;exitDy=0;entryX=0;entryY=0.5;entryDx=0;entryDy=0;" parent="WIyWlLk6GJQsqaUBKTNV-1" source="oIUY9aex-8VRX2s5J3Bi-58" target="oIUY9aex-8VRX2s5J3Bi-50" edge="1">
          <mxGeometry relative="1" as="geometry" />
        </mxCell>
        <mxCell id="kC5EYQMPbJ4mH9MVDNyT-15" style="edgeStyle=elbowEdgeStyle;rounded=0;orthogonalLoop=1;jettySize=auto;html=1;exitX=1;exitY=0.5;exitDx=0;exitDy=0;entryX=0;entryY=0.5;entryDx=0;entryDy=0;" parent="WIyWlLk6GJQsqaUBKTNV-1" source="oIUY9aex-8VRX2s5J3Bi-58" target="oIUY9aex-8VRX2s5J3Bi-51" edge="1">
          <mxGeometry relative="1" as="geometry" />
        </mxCell>
        <mxCell id="oIUY9aex-8VRX2s5J3Bi-58" value="WF_Status" style="rhombus;whiteSpace=wrap;html=1;" parent="WIyWlLk6GJQsqaUBKTNV-1" vertex="1">
          <mxGeometry x="1100" y="125" width="80" height="80" as="geometry" />
        </mxCell>
        <mxCell id="oIUY9aex-8VRX2s5J3Bi-80" value="F_WF_Reset" style="rounded=1;whiteSpace=wrap;html=1;" parent="WIyWlLk6GJQsqaUBKTNV-1" vertex="1">
          <mxGeometry x="1510" y="5" width="120" height="60" as="geometry" />
        </mxCell>
        <mxCell id="kC5EYQMPbJ4mH9MVDNyT-25" style="edgeStyle=elbowEdgeStyle;rounded=0;orthogonalLoop=1;jettySize=auto;html=1;exitX=1;exitY=0.5;exitDx=0;exitDy=0;" parent="WIyWlLk6GJQsqaUBKTNV-1" source="oIUY9aex-8VRX2s5J3Bi-83" edge="1">
          <mxGeometry relative="1" as="geometry">
            <mxPoint x="1870" y="-565" as="targetPoint" />
            <Array as="points">
              <mxPoint x="2280" y="-255" />
            </Array>
          </mxGeometry>
        </mxCell>
        <mxCell id="oIUY9aex-8VRX2s5J3Bi-83" value="F_WF_Reset" style="rounded=1;whiteSpace=wrap;html=1;" parent="WIyWlLk6GJQsqaUBKTNV-1" vertex="1">
          <mxGeometry x="2010" y="5" width="120" height="60" as="geometry" />
        </mxCell>
        <mxCell id="kC5EYQMPbJ4mH9MVDNyT-26" style="edgeStyle=elbowEdgeStyle;rounded=0;orthogonalLoop=1;jettySize=auto;html=1;exitX=1;exitY=0.5;exitDx=0;exitDy=0;" parent="WIyWlLk6GJQsqaUBKTNV-1" source="oIUY9aex-8VRX2s5J3Bi-87" edge="1">
          <mxGeometry relative="1" as="geometry">
            <mxPoint x="2110" y="435" as="targetPoint" />
            <Array as="points">
              <mxPoint x="2200" y="305" />
            </Array>
          </mxGeometry>
        </mxCell>
        <mxCell id="kC5EYQMPbJ4mH9MVDNyT-27" style="edgeStyle=elbowEdgeStyle;rounded=0;orthogonalLoop=1;jettySize=auto;html=1;exitX=1;exitY=0.5;exitDx=0;exitDy=0;" parent="WIyWlLk6GJQsqaUBKTNV-1" source="oIUY9aex-8VRX2s5J3Bi-84" edge="1">
          <mxGeometry relative="1" as="geometry">
            <mxPoint x="2050" y="585" as="targetPoint" />
            <Array as="points">
              <mxPoint x="2280" y="365" />
            </Array>
          </mxGeometry>
        </mxCell>
        <mxCell id="oIUY9aex-8VRX2s5J3Bi-84" value="F_WF_Trigger" style="rounded=1;whiteSpace=wrap;html=1;" parent="WIyWlLk6GJQsqaUBKTNV-1" vertex="1">
          <mxGeometry x="2010" y="135" width="120" height="60" as="geometry" />
        </mxCell>
        <mxCell id="oIUY9aex-8VRX2s5J3Bi-87" value="F_WF_AddUp" style="rounded=1;whiteSpace=wrap;html=1;" parent="WIyWlLk6GJQsqaUBKTNV-1" vertex="1">
          <mxGeometry x="2010" y="265" width="120" height="60" as="geometry" />
        </mxCell>
        <mxCell id="oIUY9aex-8VRX2s5J3Bi-92" value="" style="endArrow=classic;html=1;rounded=0;entryX=0;entryY=0.5;entryDx=0;entryDy=0;edgeStyle=elbowEdgeStyle;" parent="WIyWlLk6GJQsqaUBKTNV-1" target="oIUY9aex-8VRX2s5J3Bi-1" edge="1">
          <mxGeometry width="50" height="50" relative="1" as="geometry">
            <mxPoint x="1870" y="-565" as="sourcePoint" />
            <mxPoint x="460" y="-244.99999999999955" as="targetPoint" />
            <Array as="points">
              <mxPoint x="400" y="-405" />
            </Array>
          </mxGeometry>
        </mxCell>
        <mxCell id="oIUY9aex-8VRX2s5J3Bi-103" value="&lt;img alt=&quot;&quot; src=&quot;data:image/png;base64,iVBORw0KGgoAAAANSUhEUgAAAnMAAAAhCAIAAAA9C7qMAAAS9UlEQVR4Ae1d3W7cRpaeNyGyULCcteCNgVG8WEM9GClZxds7YwWwNtaMFDgyHHncRtNrtJDWGj1yO6IHplagFQqmIBAC6AbXLiBYjIDkYvdmHiBXudLrLM6pKrKKLP612CPJKkNwk+xi/XynzvmqTp2q/oWh/2kENAIaAY2ARkAj0BwCv2guK52TRkAjoBHQCGgENAKGZlbdCTQCGgGNgEZAI9AkAppZm0RT56UR0AhoBDQCGgHNrLoPaAQ0ApNHYOruymdO57Pt3125MvnCdAkagTNGQDPrGQtAF68ReN8R+OjTz34Y/enkmP39fPhF/+MP3vdG6/ZdbgQ0s15u+evWawQmiYB5zdnpnRw/O3n36M2dK1emrvQHj34+fnZy3P/roHVrapJF67w1AmeIwIVi1tnFxdkzxKrxoluLt1qNZzrZDN83EUwWrQueu9m+1TbHbsPU3c69n1QkeuXj1pvDPtDt6J7zqWbXsRHWL55jBC4Qs7b7B4SEzvr5INfFrZCQcPj5+LJtf+NDe+6fF3LFFrmdogZNQgS/nJrrXd8IPnn1lzb8/fevrW+vzp0PGRdBMYHvzDVnRMjhYHECeY+R5bWvnJBE/uZSfXKN3b/5jt8Pbt354q/vwD/8085nd+sXMUaDzvqVcyZfFRwdl5BwS+yAZrvrBm8JISQYtFWvXMBnVQTx+RDsuwRFvZZWYtbphbXBrh9GgC/7F0XOg3olNZB6dt2B5tYnV3Nm6bHtBWIDSPS6f5qecnpmNYzW+g62pxq5Qq/P+3c0FLVhPKgrMKthjC0CZZ1+1Wu9+r/PDxV/tzbuK994nx9e77jniVkNw1za9KP65PrpFzBVpe7fYnnFzuF3f3jy/s9dz518s8JJM6t5z4kIiQ7sXrc/6J7GXmbLqv9ktuNGJNgaY6gnl1VFEAmzmktbAYncznU5k7K7UmadXn7qAyO9jYJ919nqWZu2u+t6QeQ+Kst7Et/Xt+zmHPIxIST0vV273+0NX7runh+ebnLQBLMatch1YcWyuuzPPiRk5A34rfVgaebUaFdiVqM5cv3nb//lQOLUf3v1l/Z3P96iRLv58NQNajCD+c4LP9wpnM83WNo5ymoMct1+9Sfm6b35YUkY8NSHXzOP8bMfznQkdWnlm+pqaWbt7BJC3E4Fl8L8Q9sPnUY0JCerlrUXkYP+QqrKE7pNmNUwjMVBQKLdTi0bW8ysSNeERHu9xasTakH9bGuRKw5zyNvA/mq+QveoUZmGmLUeucb1Aw1oYp4aZwjdB/zbxd5gnryWCPhL8ufCr3ZiWv3xN/f/8HdxsOiHs79c/m5h41wx6+LwqCo2cjPfg7u65Lr96tnJ9/2fvgdPL3iDbyhno1O3V5g3+ORd/+fjM2bWyyxfsYummHUeFuCq2Zka1kMsUHWtzApnz6F9R/XCJJ5JzGqYK3ZI6pVeyKyYe+R2zstKYIzg7KodEBLYqyXrcTPgPiDB8HazrAr1aI5ZgVxXX2B7vqyK9BkzK8xcK4oglpl88a/f/Y47gW92/l3+Du8+UNpjRcK/yaNLbnnN9hMvIpH3pEpAEzDr6Iu7U1f6/a8xgim9kspXYZ+dvPsjBAyj9/hs56yXXL6xDqWYFWE5F8w6Y+0Tsm/VmjXGrRrnQmZWw1gYHJJoZ706kRQwq7m+ExHi90rYyzDM+bWnXjDia4CjwHu6KlAE67WtL4deCGm4G9lsdx0fn4Cn9sCxqqhtDFIVy35zEBASvlgthWP6luUchBEu1JO3kaIyVxetl37IEgTexvJyJoKp9eUgXsqNAm9QmSaxTfXIVcGsJVKAQoqbqRwqxngrLqqIQPEaPPqH//iRL6+G//j3OYlqPDbnvxLBd9bnLFiV5jNwVdNSxlTKgUSB22XdEd/lfRs/eQc2CiTOSpxdHe7TTt8xDFaiObfGHhISBc76XNw9U1UyQLWEdsGKzN5AHE2yUsz5tS2Pdc4ocB4UuGemFx87/hEPOIgC5+F8NZirkytjVpqtec35sxVvs7l9g0cFf//kh861j2iaCswq4YCgafkWy621KtjkKHA6n8TpCwxvwqyZbp8frYkkJGsI9wqbbcFshv5L0carapiX1fWeT4j/hBLrsg3RKfZy3CC8WN4OIcrqJn0qdZiM4mQVDfWCk1Gw11u+k45gmt/0KzrGaQ0KmHXVHhHyulcyTDCXBoeAarg37MGyX985BL0VZrrYjEPfP7TXEiPC/MzsrQ3bB2L2+wwXGbO8O2bZc2MpZ574hET2St777HnrEUxsyShwNmEVs8eMlDDTNZeGAbQpeNmHlc5NJxiRKIrE2GCaSXTo9BEE9wjSO/dio1lSB/yakeugQrxxmlnLpWCUNpOZ6So1jdOUiSBOKF/MXrO5K/i/vv1Q/m6MO9a0I2+4YVnd3nAvpOKpwazUPROLD3Qsch9C35+5vW51Bx7EFtl0nXsVl3qKJY5gBv6BuAyBivDadUeRv92DnraNEQyJjUgpvLkEI0NCWLus/kuMwYvcDh/sYim+60bRaxu0b8NmOaqdZi104RDeS63+S997Wj30jZErhSVfTBKzYrIrH//TK7qrFTbhfPO/qZ2spcyq5VtNvrFMzDWYFLFuZm06fhjwXQzFhjdh1qTbs3iO9aW8EJ7rS+tda7AH3kGbRn6soIYwsxl6W0JvZwulOTXMy+qhC+zABwcLT4OMYUe2YpPaUsXJKNoW2neu/kBh1L6LscFgIiLnXgxyyUUBswLK0YvV4gxQtyP3kTBHNajwIuc+5RVsRjKawPzQkIXPhSivWQv8TTtrxcVJ315dBsIb2XnvULvTy+sQNK/rzGEsVMUw6Ors4YCulivaeHUdYubiXTeYSbRnJSiYS7Ayd9CvOCPAukwvP8ce85XUSuVNilkVNUxJoWoz+SxPWWr2YZkIsm/gE2GRdefUzHrd8mBPwFCQIDMfdZi1b4uuzlkYI5M9i4+MUqpoGGUSR4mQ4KkYb0EVQVQWc/VFiCMwipNcCiV7eS3GvA1dPvZK0VKEUSxdEFLr0QIMuk8TWmnOd2EM6m8Ud+oss9LWfdT548nxxpvs4LmEWbV8hT6AC35q+Qq6BuZB6L2GYU5P065cYngTZsXcsEOO6w3GzhmKK3GtLth4JKf8GqoCPiCryEns/Cd9mDOJZIExzO4jbGS54pQq2jT6a1O7bqDO1bcelTBr2YYeHClwBkpEayJwu9QnwMSzlHxtrL5AP7PEeaa1B6vlQqrCS2bTk/F7NjWKtoQq6LyWDwKSPPDdYPBbwzCQIzNtXHoOLgk6ElROjjFBSelJeQajVXmMInwvXwK+SY8vl0KFZtaJYKKVqSACudbxXZNzVrPrATmxYRwvwkS65fCreoKsXfw9/pmyKenEpRLHEsPhbZ4ffCoUwUCL4HWFMSivM+pI7N2K86GqxRKpSlmDMV8yJohfxNIz3Tj+uuyC0WowEAYw6nfymNW4//XJce/Np5m3iplVy1fuRXnyFWFFf2nkWomPkH1bYHjRdwF2RbD5KS0Qi0hfZ1RM5fJErcT8c2vIQ1i4GmA5MAVPzB04kmDZNXL4sicuXPLbCoojqTMa6oyi3U57g6n+CuCkEUjdlzCrSkXFHEASqnktVp3xO17Lqo7EK3nm+Y0r5p57TW264BZTpmzjMqvcL9MJsUP4inntI1yngwBVdRuZUUPPLV7zFkif+YsTUkXq0SqrU9LV1DVkphylUKGZNZm1mgikVgo3Da6z5jQNuxhXT0zDb1g1JO2CReiFVWvLge1Yo4ituCcIpxOXShwTePGcF8tMZwIP6RyCOZ2kBNCAkZ11GWHOdMynFBlmktQ8Bj2vk8QJCi44rVbaStgws2J7sxqq5VsgL6N136Hr7uGB01tZmOZpETXJQvEbqh3wvUAeeX2JZyd8ophEFSspKq+GSmaFvOQubYJ95uNpHG2G22zhFRKXKE4FRZMUk7YT3hLAERqvuixgVgy55gMB1bu5rCPadHYtYk7JStyOGe/L7GYtSabk6jYdJwSyRy6dW47eGobMrOFzccoNmeCLjDjxOnAeJ/tN+cbT/MWJpCK1afXsmbW6CJJmylfNxQYj+CkOYwhV9gbzhZko8HZdG5bb+7BSniizpIpc+kUSx1rJnZ5HMElASAoslVLBQNRm1mw3liqjvqlFq4ZhTIJZtXxj2WAnSXpm/DxzcXVh7anLQkQPmasBO5WwD14wvLhuAd8L5FG5LIULF7KK9gbcEgq2ka7CGoahqiFXLkl3YFttqskmrMfRZZGZx54Qu4QzobrMejRM23dJMSm2gIYATgZw+UEBsxpY4+KFmSI/JPeDS/aClo4L7NlxqFw15V09m858DnHERzbLQjcpXTNH90smkgt9DoxZMWysPFQqW7pR0wkc5wDdNulq5VKo0EylmY4LFC7qiUB4UboUlloPf/zN/btTcSBTzf2savAxmFBmVjbPY7UQvap4LS2T0yWABOF0H1YXKjTw9Mxa5NTia065pSQ1j+uE3bjewj8GJ+Paap2Db+4OeiffW7CdJi6bXii9wXAMk/Xz8X/+jzroyjDUUGv5psDNvZ1e/AbC2igllBneBplVbTZV1ZRqqGRW6OcZskQFcTvmTO+1tCGnguJI6qzGZMWOQeN1BnAaWWeFNmJwYuQ/XY79CbwY9omxzmJQBmgjHAeVRMZKzaCvmfdhMUiKYErlq7ytb9NnHmLcbyjubZCzVsRH8AgmHsYGiBJpKd6cwwgXvs5q4PYe2TTLpajvxpmt0pxkZjXKpVDezGrMWl8E6qYbhtHUGUw4upTBn8bIoGTXDQ4siP8kiTBrQdw4T/BbXDYQ3BI0TkQYu2AfFrWqTOK5nCeNxYu8wcYd2FwgRieBarEIpjW2MKs43AOrqmBWFi1VcSEfpVZ3tspEPXXjDf5mXPrQ4DSzCkcH//nXPNw52120fCVM8uQrJpqeFg/2wdVNOs8pM7ynZFZx8Eo3bUpmU6hibg05s4pZGYYcG8zyQQVxNwewG4bGLtEvyhVHoiR0LMtkZM4DW/PhCCsOrEQzscGY4ewqHKQHpxsGeDSghacbev4RP92QhVand90Ig1ypGayWRnoDgLVpewdhvFOQJxM/F/qHYGmyy/Jiosw13SqAMB14cDojPd1wP4j46Ybq7SjiIu7nOMAgPHwctuUE7l4SwcQHE8kGCWtj6OwHQe6GIKjmwiaMP9xuwe7DTGv4gxSzGuVSyNl1IzRTRQa8PPY5nghSmQi3zZwbTCP4480kuO9r3wPmjGmMhkbzfQiwfSX0/eRYJfRtxPLd9qMRfpvwE53hRt7AsjacAay+8/BjviUmJXEVmCpFkJxOqQTpItiuGyEKOrcUVnMcGY/4kafpTtIb7hbturlGF1Oe546qBUFmLlU/dCMwa62fu9HyFeHFTpL0TPGr+Lrjvg19ukWw27NfwyzGXqGDsWLDOz6zUn6K9gdWt+cMMHaV7rCINyt2rf6254dUJwtqaCiyQheF9zi1AxRPb4gg3JiHMlEEShUnpWh0AskpbGPoHZHAhcMXRN8vjs49S4q6jQFXXBR5g3ny6cXUcfZvo+jIH8TuG7O9vu3F5/VHgTd8IB76kGoGz5WebMD3rJNR6L/sLeePXOG1m8vLmWg3nl3RpzmX+UWBURTsdOLdA607PTc+rx86ZbomZhuOksAhBqGnQKBREwOUpL3GJIqCveG6CIOiggvLvx+HVjPrrJh1iRQgTXEzVWY6U+lxRZDJKH7QyG/d4K5z2pfeRsGu1RadvViU2bZiEYf7w9VZqVtK3x7Y63MYEC7ar9l1BzeXkrehzbZFFUlcBaZUImt/EbMCf7cf2J5wsIO3JfWp3FKUzAorW3jgCVe6KPD6KylrFcsFRw+/H4tWeR6pH2elzHoz/onWXnJYBH8j71PLN0YGe5HYM+NvkotFay9gUXiwDd/t3Um8NexgH94HZMM7PrPCEegvqYaQcJttkAHDK9bkyHc2lrEqhTVUZKU+gwk3tpI4dikBoERxMpoonmgR4UlHkmLCPAiObahzCFQVZhUqrC81AhcDAbARyZz1YtT5vaxlcpbhMZwkTP9+enXaX47T8n0ve0tuo+i5wfy8i9xkE/qCnRvM5v2VCtHMWgkmneiiIaAt73mSWOwcrvbrchWqfunla860PpmfV/y1ZqjftwKItZJM31AWNz9/Iy8Ip1b2pYn/tr91I1Wn+d+6kbLXNxqBi4PApbe8F0dUY9X00ssX3ZV0fUr+X1yiGgvanJcQcbkoehdHM+S82Njjpn6ftV6FcNV2Ar/PWq8WOrVG4HwgcOkt7/kQw8RqoeU7MWh1xk0goL3BTaCo8zh3CGjLe+5E0miFtHwbhVNn1jQCmlmbRlTnpxHQCGgENAKXGwHNrJdb/rr1GgGNgEZAI9A0AppZm0ZU56cR0AhoBDQClxsBzayXW/669RoBjYBGQCPQNAKaWZtGVOenEdAIaAQ0Apcbgf8H/0roUwL0QVMAAAAASUVORK5CYII=&quot;&gt;" style="rounded=1;whiteSpace=wrap;html=1;" parent="WIyWlLk6GJQsqaUBKTNV-1" vertex="1">
          <mxGeometry x="1560" y="-255" width="630" height="60" as="geometry" />
        </mxCell>
        <mxCell id="oIUY9aex-8VRX2s5J3Bi-104" value="&lt;img alt=&quot;&quot; src=&quot;data:image/png;base64,iVBORw0KGgoAAAANSUhEUgAAAawAAAAiCAIAAACMZ3rnAAAPnklEQVR4Ae1dX2/bRhLvN1kEcFEWcX1JUyWH9iwc4gROTu1ZOdjXqKiLxEHiNDLEIJARuYbiKDVThD5D8dEwDYMwwAh7yqJ9qIH24e6lH6BPffLXOczsklxSJEXadBzHawTVkqKG829/OzM7ZN87q/6UBpQG3g4NEPV3HBp47+2wvuJCaUBp4OxxIIC6J3lP6UBpQGlAaeA0a0CB4Gm2vpJdaUBpQEWCygeUBpQGTrcGVCR4uu2vpFcaOPUaUCB46l1AKUBp4HRrQIHg6ba/kv6Ea2Dk7MLta2b9WuvqyAmX5PjYVyB4fLpXd1YaOIwGzkzd/PK310/2957s7z3d33vy+9q1W9phCJ7W3yoQPK2WV3KfYA2cvVh+tdMC7OvdMa+OEO28udZEKGz+Uj9/7gRLdhysnxwQHK9Wx49DQ0d1z3J1qnxUtN8oXa0yVVEBSB6VH8r0I2db7YU/IPSL4t25q9d+6UFg+MfOl62LZ/JwdLqvPSkgWGltM+aa828HDlZXXMbczo2D+07lsQ3y3D1OHJwEHmj3QengYhBy/rbpMmovzRSJgx98Pnp3vfz9j5WXP1de/jz5vXPp1q33P3hHil4HN32Q/yZnviO36nd+B4hs/dYuT70jKjuMg2b47XAQHJ2ca6/bLmXBH6Xm/Qy0i71kfN4E5MmPg1pp5qFhObIAjG61Kodg7/AgSEh5fg3lyY6DC100gdO+nsi6dtdEObv1xEuCL6rLzuFBkBBtZsmmheHghQ+//c/Uzv9uxPz78ZNPAuZP8ii/6UHa8bv3IADk+W+6+H52vPP5tfQr35Vvy/UuZU5n5ip+tqu55EoHwdHasg2Tqk+dza650tSXjO5613JodyHXXQq6OD8OapcROhljrm2tG61Gs/Oi292w3Z2cegpLUAQIktw4KECQuau1MDv+0STEy/CXCQT9nx16UBQOXhhd+lWGv6mtXysvf/58m2Pij5/8OTunE/XntruWZS0YSrNAUv698uPgOacHux+Q6n42LMDTPvJT5ldX/Xse26DW2nTs5XzAlMBsPKlyw6LMbmFwUHoAcNjOk6WlgKA2s+IwxuhGszqWwNKbP50LB8dhWWB9x7g9UWSyRkhBIJgTBxEEaY8yas7HynPTcBl1d+kbB0FSSDx4pmr/3QsAp/5lj1380POvkTOf3r3YcfOAYLWzW5QaCiTlCQSfOXHwwqve0/2fHmOqCxvB9z6Kq/qNvH9PpMNPfn/93f5e820AwXqXMXelEBCMI6XNmVSODMrNLcY29exVnmQQvNFxIVmqH2fVSvYZfzw+aziMOcbskPpgCSHQ6UzHAoZP7iCD4kAQJsPsc5Tnm2GaRhDsrhouY87y5ADf2vwaZa5hbLz5SJDzolUeWZRR69HB9knGP/7By4K33T/FvFFlhMRN+wE98BMFIleBpCLMZjY9IQRB8OVV2Aj+QceNkUjVL6gYipT57r1TAYKlhxZjln4p0C0WhdKqRsGlOEoCQZxRzG4OARpCtIm5Zcvp8SyMsZ5jLc9Ks1k4UPmbjuVinibyaK3SMG08A6nqtqnnmjhZcPB622HMfT47FAJHp3Rz26V9FKFPY5gZq+ovbFdc4FiLtdrAxkj5m7ZfdqSO1R6KaCE7ZJsMHAQXJts7jLlGNCVGeZ3lSVgrpXRYuzzX3nB86Zx1SdNAMNjeQWTv1rWJuRVLCEsd836uIPoQODi2dNkLAyv1f4bUk/MABfEcEj/96k2ambQKWNkrHbvb7ZoI+eNJhZiKzALXbt8MfZ98kM30EggiqbMXy87LoCfmstgXfrr/+ttXN8+KBWQYCIqoyp+brC/MLZ1xrRU+nUv6JmPMbl0JiwLJR+ySLC5Db5QV6PtbGgJoFXlKuvYyOHsCqRLEfVvNcNyHsWHm2DMJBGeN3iDpsPyYA8GEZMzd6DQbut5omTvgRFL8iCC4Y9s7xtxlH45Eoi1+tWjYgKEipR+4R8IJgYOJpb3SI9j6NL5O+Ll3urwAGTPrOeaSrjf0ppj/UvyozXSwKuC8aOkNXV8ynR6jlMrwwYnQHbOFSujugg7MO7683s3SPsVkSKtlCBAkJeCZmndD9GurLl8PwyCI+veka63DskPX68JjYkDQ7nYp3TLAmosG1oNdI+t85uIJHMy96Xzt334uXP7HsKJXmiZJaXpeb7StHmM7Bpisoc9i3JxqJiyn9t2u5wZOH+qqSaRC9xce4s+CZmfDMR+ELkk9yGD6KAhyeueuXunzbsG9p/s/PYp2CGYCwY2u49rGIpobpqHbaXQcoYemsQ2Tw14C9fE9N3tpQpZlbo1GojD5W0LI5Ne63oDMjW600RbzMxCypSLA9ZbNGNvt4mwCZbJ1qO0mkAJ/j3BFiAZnt1shXiOcSYdJIAhE6PNZ6cqYIS65tLsgRX5CPH+K4iRk4dAUE233mdRUMa5DHrU2F3OPpFNjNcCmnpH0G+TNbkpBcgylSyJjllghhFcSd9o84YyRcWwet2C9NQ2J0A090II2AwWpzDZAxkZrz8BVjNsxbIpTHggSUoP1d6sZ3BF54GFvBARbq00pyMZyCbN0jp8xICgvYET7Gu6Tzy5Em2jAumIvZvRAT96q7W+J/KWA8pFIQTzqhKSb6QvMG57NBNePjY6KgwFSwUUwnxEIIrMgdMWwgwymjwdBJHxm4dni/t68ObhuZAFBJmd7ODEhhvFntIauLjwZvc6bF3Bv/JauxReoJanBJUM1wVQEqKApOtMBgdExzxQYDg6Qouad4GI+wmmbdXswDQRDN4vehRCC0aKsFH4NojAHb0LQgXY7knOR2ecwR8LwpOkbjO12Ym4Se0ogYLeenK1n0QKPFiMhFRFJkNP+ghCCcDYg48yzoE8wNuTEC7LagBAxDQLni5U6AEEyCd0tQYyGh2KlCYNglBCqxYPvGBB0ZecjBNIKtiEwM0or5lggoNMOLSsxFw6eKi4SRNpR5Bpipku6xRhzOrWYPcAoqRDv6O0ZgCD0I+kgm+lTQJDcajf39+6tSjTFMBMIhoyLM7pnSLEPTkxq8lADnScIaDT0nwyJQhQEUxCgSgjW+JjzrOYjnyRalBS5A5siMR27wFvWCZgGgsO8HxiKixbRaZw2NuLhOKTowdzeLxl0JWmThxwBaRoCEkIG15NBimjUCBzjVRxuIKOJl1GGEhz7IsiDONsMMpERAQkhnCteVOVxjViEcYn2tsOAY9n8Y5OzDzvmumXvUipKtx5j6MS+A6EgEb9B8+12skVmHgKu5EdAQkhxNUHUcRS5hpmJd/mA+ZyNTn26JNUaoqRCNsSgxn4ULkmFrkg5yIyARwaC4UAnxtwhd+J1dlFrwyphJt8AGvKNkKY8U/wxup8209rC0mzfsVbqM7IpBiPBsA8HuobzEWcOvoyMkkBwAjrOkloxBA2QJRMIhpmBn/WsNhZreMnG+6+0AkXY9A+zISBcDktEWsnWi/iGg6ArZ0nIyQAIOuZDqD2F//Hyh8967CDPNJBBkBC/CIgrZ1CCRA8TGtem205ftHl2V6GmiWXBowDBwyEg6OZod4fRZEPMpJVm9FULNIaVU6/aMBwErYaEmbF2jjmZx/RvCQgSBD6+KXepaQ+bX57Q4JJREExAAK/pQStN68YmFOND6fkgCD4Ibe55d+QRQxh3gu+ioyQQ9ILStFU9LR32CkkxDoQ1lDjoifI2cJwdAeGnGB+lBoyp6TDfCMN8MLr3xDN6ASUTS5l2YAaEIVmzYP+XYRAkYjt4FvampIRdAkGeqlm6VDSQE3kMLT1AFEWAiN/EhAY+O9Lg8AgIxKJ9gp/6qWkBfYI5zKRNzD2HHaTuAoe2GB8OZL8CVXzP24PTw0Y5EZAQ8v7qy+X91/fgdQnhv/h0WDtvvny8v7ew9Vn4aukoik1+8UoO/CV3gp/i9gjUYbACE2pMkShHhtEbZUcA7fKcAduM3bpYZaKkCETiMfufmAhGnDnCVXCYCIKEVKFAyai9HJucAwkMRqQyKpzj+z5+YBLjQHybKbQxEvCTPMqHgEAHe8fxSbtgYzpM36sEhfI3vjGy3cJFiRc4XbnZULsMa2CwO4xgFNoYCd8k4Sj/NIiAIME2Jtyoth4G6ZjktegJckFWm4WdDr+GAgQPD4LFICBqqcAnRtDxRE0GaaebSRsdlYO5aWiS9fYcB0iFLMr3mqR2gtC3sQf5TY9kPvvbf/HFWZEHhwdAUHp8WL8QywA/OQAoXgU/BQTFZsjzZmeXZa6EokviDi+/cToCaGMhU+Cy7bfmREnxgpVnqUDY+nqOnckUECRkfNbADhjWd/CZMx0fm4Pqkmi8ijYHiBYZJ4gfY0CQEHzQjzGvpwTIWtuu38wViBKMJls7EBfrSXAWXCmPeLsGIta2BY/98cfmNh3qPTYX3yIjx483cC1grgU/5z00Tncj2BjxcJ+xXauziBnxYsfcdJzE7h3gcHIJn9tt5OnCi4IgIdilxag5J01gCQT5KuW1bkArErW3Jc6LAMHzvOwQX8aWbZFxXNSzw3z1olZb1xfNNpR3RVtGvJludByoQIGJ9UYLm5z8JtkBUugSQacRXzUZFU1UjZaxmdYicxDTe8qLe4WMDIK5XiRzIBDkoQ8svcG+nMdd0ieCAHPMRV1vGy14oC0NAaorDnO8qbTUhZbVoBFikBT2CXoFcY8DSFKTny71rvI+U0EQLhqtRt4+0Kd0V+oF1Srzq5bfYkodq3Nfasnga8tgWMqbS7H6CRDVc+0XzZqUtXnsSZ/Xa7V8CCh+C93CkRdA9KizVvc7OMo3m13/9Qr9GE546ybwyRhvhJZrgnib0erDoPebUepsdOZlNUhyeMPJ2ld5EDCyMSKoQON05OkRGQSJVtHXvU5p1zbuT8zIbd5FgCCAy1eJuYInbM7PQt4iMz5v8ppS3/Uaj5LNdGmuIzfMbxoh80VIRUCQkEhHurtt1r3iVpzk+U0fohJ5maAAQf+lCa8Xgn7p0O+iBwcEQV6HiWnXj9IPjrXpFn9WgvWtJm+3TkaA0p2ODY9+8vnmWqshUwySSnhiJDtGq//bXGApNVIaODkakB6SgzdL85dLf/dGXp8litFpMP9G9cifHQ6eD8ECRRA8DudlaCQ4nIS6QmlAaeBYNBBkx9lesVUIk35bgk9NK5UnrkzE/PtrqL3Fv77wwdG9RaZwVhVBpQGlgROugbinRBJ7MDN1ERaikCN8n2Ah/CkiSgNKAydeA9XHRptvGdFQ09WJF4yomuA7YEMlgtLA0WsA+60Yc63WEbyb7ujZT7uDqgmmaUd9pzSgNPDOa0CB4DtvYiWg0oDSQJoGFAimaUd9pzSgNPDOa+D/eKsxgKshD20AAAAASUVORK5CYII=&quot;&gt;" style="rounded=1;whiteSpace=wrap;html=1;" parent="WIyWlLk6GJQsqaUBKTNV-1" vertex="1">
          <mxGeometry x="1560" y="-315" width="440" height="60" as="geometry" />
        </mxCell>
        <mxCell id="oIUY9aex-8VRX2s5J3Bi-105" value="&lt;img alt=&quot;&quot; src=&quot;data:image/png;base64,iVBORw0KGgoAAAANSUhEUgAAAiQAAAAdCAIAAAAVe+BrAAATwklEQVR4Ae1d3W8cx5HPfzIQoCBjiObZJ9EKkpA5iBZWwsYhnZBn0hAFiYKOOq3AFYQlvASxplfhKuAwxJo3jIYgBgTGiw7dsB8swHnwvfgtL3rSk/6doKo/prunp2eXu6QoaAhB89Wf1dX1q6qu7v2FV/6VFCgpUFKgpEBJgVOmwC9Oufyy+JICJQVKCpQUKCnglWBTMkFJgZICJQVKCpw6BUqwOXUSlxWUFCgpUFKgpEAJNiUPlBQoKVBSoKTAqVOgBJtTJ3FZQUmBN0GBD67/PqjdCO7+eubim6i+rLOkgEGBEmwMgpSPJQXeegr4HwY7jdcvvnr94kv4/9tH3yxcuvTW96rswFtOgRJs3vIBLJtfUkClwMU7tXsvAWaaP7emZi5emFn47Odvv3z94stXh581P7qgJi3vSwqcKQXeBrCZnJ2dPFOinHJlU7MzU6dcxdkU71dnqv7ZVPVu1OJXZ4cg6AfXb/zYs+HKxUvN1qNXgECNH2sffvBu0LLs5bmjwPkHm2rzgNIkWDkfeDO7mVCatD89+UBWv4igP/ffJN5UoA2k+3Di5N3wvA/vBgkl0fr8KPHmV38Yu7879Zfvql//UP36h8pf4qt37vzyV2900eHTNgz55uwwtOor7+VlIOhB8wQElX6zfI/ZpY+mvjlsgletdy+4/kYp2hc1ykRvlAL9iIhal1LarfXdThfYjFWWW7tRQmj6R0jwoO+yR5VwciWA6T443vgT8487Yax2gJLnzeoQDRsebDxvamUH+9M/3jyCUaU0bt3Mbbp/P8B+9jX2sxvx8GDjef78ekRGhjeX3/vff8wc/v+nln/fXbmS2/FT/3BmYON5/lwTCDoo3lz+pif9Zm5ySK/aF8d/Lnap+RNz9c5+TI5TAUB7UfOTtI6xmVpbFREkibbr8xO6+oEEVIqglJDkoNt+ODuWloR3nM+1tPSoXYTz/vTdVvcgUdsZr4tZnq0dihfTBGvsPjLagY/ujLYcKHz1xssn1ouiDvrXMiL3EOQVih1ZlnEj+gJNmqp1CY3bJ9BXjA71IyJSsJnEalsFA5UHNmOLGxEIr2MS73eDzUZ9vdPd7YYxsQ+M0dKRPw6ON/41hChKaRKFu53maqO93e3uRclhEUmcjR8F2ABPDIY3gkeTrcWc1lXA/oM/lfNy0o7y9ajw5vLY+j9VmJl5/s/q1z/84YBhz3dXfj3KRg9W1hmCjXcivLl7D2MBGj/WrkwWWCwXJm8yV9tXr7++7iSDP40sSulxEu11O+v1xmbQ3Q2jJG5xs54NPfBcvA8Jmlvd8CCB5+O4c1sx3JGAZK9VX63X2TSUAJYEK9cUZEI+j5/VMaX4/8G80wD35zdjqDSJwu12Y7XZ2YVmxHKWa7WLMleXKqz3RWAjmp3JaCNe5ZZMVu8cUtoLW9Bl/Md64eygP9eGngDBg/Ya0FPKq4m5FUmT1h6hNO7IkmVfPG9qNSQ0auarpLZWn/xdCjaeN/EQUE7whr1MK9jw8SN7jdlxe7Y38HYgvEGkBaa/O63w8ghaPSKwGRBvkEdJj1ASrFj7s9BJKEmOyJmDDYjH4e2bC7PRH4VBM/O3aPyj98RQXbzwm/sftZN3B2xOgDf3/+f1i41X37Z44Nmt962rMh/89vfcjfb9F6++LwAbVJApjbeW8+bP1KMuoZQctBZ1EeFfq3d7aIVLV7MVrf2J+bUQ1NmksyRZ2iH6BUOY14+b6BGuKeCmJ7HWLpM4anRnlCXk3IAgztpkjuq8adAXSbdWtF6AIsimU/rLAaH5+mhOQ4d4rYKN5001nlO6X3doBjawYbpAN3/8hmjfUFknlzoxgPpSwXhMgFFH4/ac5OKhqlUzjw5sAG+WnmF/VDVQrUzeMx7d6iSUxhtcJ5MfPc9f2SE06XT2zt6yYa3wq09CQkn45GTL25P/+VfhPTtI/sMSo3vRK/b5KPQY7e1wQudkbfGrDSDofqMfggLYNL65fmFm4U8/QYBAZlVGrui8+OInCFFDt5vDsplAIIk3850x/go4bY9y3DU3AQBSuZNPwMo6JExZ2iWLcwhZmCW/dijRkd2dMac58vXgYKOLbllQ5iYPbCYeh5SG9auZDKf2wmgxevJdrv4s2KDkolGjQKB7nj+9vBHGoMXgXy8ON5YU/WK2fQR69tTtdoi2tfC/+dXVIMI3oNYcBPV+5pOkVz94c7MVU5o8SxUmmdu4GZupB9LVe0wsjRmfrW9HCfNZH8fh2uJiJkBg6nZLLguROGwVIofWiP7whk+JSusQNEHTlYb9jTcq5thfW27tCYf7MYl3FUpDgWmYA2dff3p5M+SdJXHwIE+p1TogHobAm/H1a8Ksqdb+WxQ4zHVs9nEQgZ2HfyQOHk7z4gqY1vM8zCv4M95rLC5kAgQml1LCEoPtzWYbPBbv9Lue2j/ecLBhNV+8U7v9Lxnr/Nv3RRxa6187N+5w5asAbDibOeYPyjUaPs7TYoUMYYLPIbUZaB00+fA4RL9JV/EMNr1zsjtqP19gs4g9Uew80UXjmgM2E2BYPG+wIbEP0NV6SCnZ4c4RgzNN6aeLCDC4VXmSRJ0H03UzQABNq/xQmizYLHV6aaONfqaP/jwIPkqTvXYDvIfN4BDmNkntIQSbwyg67CynblnuoOO51joRYNWATkaON9IpmzaK3U08AcO6c8t8bzwzPwDtxcE6OFUbXM4q9pA/jz5UEm83wWG6HsQ9SghRxTR3JhwGTSRC9whoENwbyKLieONyd4pJiConCe5r5S9uJUyj0cEG6S9619wF8Ul2a1w86JyE7Bt1u4Q878BornVwvS7pLBg0cz9yvBk4yO3G/0kf2tSfChYd3C3Ar9wFRPig1JvbUbiBS5fFTCscyGJAgavZkMspxDy0hLMNJ+zOsjYkopUGj9XXg2i/JT4WXzneyFHLyaGBDaa5eOlRne22gX2dL/9u7LBxg83VBsyfZ0s5tcHr5R0CLGftM2bzV0Owsh/ig1Pca0wr+NxRdeaTGO695mIqZ5RUztrPk2XjCW4Jm5+79LwcsAFCRutSqULTU2APIwcKRj6pRV350k8XER5fmEjCzYaQljgxtEViHxohVQdlENhtFmwgvZvVPB4dQbqPFEvGYxNVikIUdkYAFRv4p4p5PlkHd8HOcqZh+S/GFwEDep28PEx0Ntzm5FXuaVOa4nGCHraYowrL0fs4jkMobQIshOzVUyr482DP5ZPb1quxxacQG9a5a/vI3qWTENWf5420RmwDM+O0eevNNrdUJwx6VKWA0DkJe6oqCp5/C9SswcbF86dXwX0ZrQmOz++Q9mU2kqEBvyuIZ9HyWR+4Z8bmArIMqMG0yJ+KwgSGDrgo09Bn9NCSsJ7a/f780wQUpo8zzWHepCFCg2D9g4Dm5yZoFmxYU/wbP7346mUrG8jnBhskQvQkz2qBsoHTjtrzmR6nL251YP2QRXk5xT1ST6xAIJ9ze1RchEckLdu886dXtrkpGu82TMjB2kVh/JoGsqczyyzVc2fMJDdeMBKZ7FzQQX/6QcBdC3G3kQM5yMaCYrJWaC0J7slnphCobIlrQmwZqQ/phzAsnR+WhQn/kxb4QDWwYVFzmbaJRtnBJh0MkU6/ovUjhHL6CYGN7jJHAYKNzpFLz0AW6TDg1/eAcdNC3HccaVzLaPbB0Itl1o9hIggQjVsQ3Imwkekjzg0+BlYTSps8eqW2J440OmxnEipTogJRy6nNgY/cT6qDjVkIkkVwDxQo7rnqkLTn1CxgEdM9h/KqJgYjmyFN3NLg20hkfxylZcPsaa4u6NUVMy2OXcbpPKe40axaPybIykQkeKY0vU2OJ440h8UEzQMb7/qPADaXM5X0ATbZ7qiljBBs0EgS4gn53IhGE3Fjav2We3TyMMjR1w4RM4ygspU5AaXKzDILdWc0U5vPDrAp6CB6ehnkkD1VX+RV2OXbPQgO0Pb/oYMxXQ8TznbP8/qQfmw1SxToa/430VUU3TrYIESJ0RTp5NUONkVSBihps35wqsctDHHHe11aoTQ0lAz22JUNct0wpCkK2Kjiko0uOs1SccAM2MM0jPnA/Lf3URXZeG/tjhgks1rjuT+kMTzLzJzijlc0dEQECJJXGenxytLjdrAbRkeE8KU10TAL2CgZoZlcVzBVM6MH/FEgjc2esOdQ345yzcY+alhb3qeUaSFFr2P6j1DocPUL7+1DLv1somv20sRX95UjTX9W0YjB5hOcP09ddkttl/bhRhOKtkpAs9u40iBp7hD9Zkb781hlGWKOwaEk4mhctZ+rAAG9R+OV5S0M6T5oip7wBHaw0Wc0JkXGFuoy5uLhA3jvln462CANs8YucPhwYMMi8HJCbHl/i+ctl1a6BMPpp8SeK6HiOqVtT/0hDeQEkFdCXGyF9UFuaGySmXKYkYtsvI+DxyKUPu3OyrzbiQdN6htpDLDxPLlIg8uA6RKROvb+XCs+5tukuluw5oSrC6cBNsMhDZBihNFo9lFDFoBPbg0JUui2OGRUpRXex9vZEa+nyjJW1pevSaQ0rgMhjed5IwYbD41aIaSMtrHHaYgikw7zbBIWINCtsUUdlYBGWn3J2rWCYmR0PDJXNgm4m91Re2ZmaaW6M2pJLQ+Ml0xdbTA0ZR5agdmiEhQ7umD1PO+h5qtgaRW3B2ilMjSgD+lnAZtw1Vyjgz4OBzYei2RwBT56Lo+EcPQjruo0QZPZhqiCjrnX/pEGikB932kAOQ1J5ujEKaevsHmeh55ALrLZlCuMRLB1ahCkyU4JbhEvQYyGIhSUsUeHpra04KkOQN0ha/W09mnZDI80QB5zn81v5N6NQffZ4KjZ18yKmdbOn7j8wC0btqvDuXguh5uVZlnLkSlsN4Mijed51z97+WIDj900CrS60S7MLCz8/P1Xr/76OyN1+ojajL5amX7EOwQJd+izFG0aWmvlsLV9oQBl+VxLPMADtl+IHjdmOKS/O2NRc0YBNp6HrjDDpWkHG2htJioKvb7AusDDqe+9D+mng42d7dEq1cEGvUqC8hkSZd1o4EIBQ5qSaGPRPE9C5LexowgQ4LFYFrBhR6okaoCAKNB1HQxpoCTczoon3FgDVDzPY7PFcFOwiAtut7IFqETdrONfg0CddLUDhb4WIODqhvw2INJYJiFqjhgMooafKmCDg64q6f4SrPhLr65udNvYtx+wGQ3SIF1GdYKAv/QMIhusa2CFTOuj6NH405+GiNI0QADDgnUUl+Nq3PAgizQ+0/hueTwB0kApF548xR8UMA9GM8FGOR5tqfm+pX7xii0g08QR/s5lxL6573tsphH29M2JVqk9PlvHCElNqXWIftE08/qwHTysaGKKWTZyh4C1dlmKo0Z3RllCzs3gYFNr79QqUsuCYpllk4IEq8o2W7khnUaj8VZN1PfBWG/uEG2HabH008GGOdV1th+7jRJFBxvwr9pVPWiQFWw8b3KJuT7pcYxnvdTxuBrw/nOY5WHBZuizwjoWsOFH91Aqw1Lr653wIDGgmxOKXyrNQ+Ddeh5s6KnFEwvDRTFxEMJxO/KcDHFcjT34T7WHPkXMpWq0X9zdg7B+sRDHI2XpUdheQ9fKWjvYj9OjMkRr1GtlHc8lW3VFN6rp4T47JVDloSRQQ24VsGGuNjE6EGJOIjhKRLQcChT3PEDA0EeKweZD5q58mquRmL0oeB7R2WgmZzbau2noM8ayC7KIeH2VafmQs4D+tXZ4ROMu7BOTITPyTBEWA4p8FcacqSZqu4Qey0M7TPZobHZdoc+Xl4Me7EU29uQXkI1/th35rIDNoAc/Q9Q1W+fjx8Dw42rinuzd1BJbVBDHqzQ2A35cDYma6n5qlNpiiR5OjeLJsuos8rmxfl5fdTqlMQslTEw12tts55+ibWi1p/5PHndgrxE/nhrY5HQQpy8eD8YOBwrNzSR8pHPABu0MsXwreQb1e1BL00gB/FYs/XQRwdV3GfG/HZNetwt6mCo3wHngOMIgB2ygQWOzximWx4QcRS2598KvrmyF8phOEoftB+r+TCvYiK2gYr8d7SXRdmMxDSSVVFJubi6a4YzKR8et5VS7Hol3ajKQdGqh0ZXHdB5bWuJXYdcnQBYFfm7dnsKRTsW0sQeQEhLvtVdUMljaV1nMCWq0pGWvcErokAwqtsFAKth4frW+K3Z04g6seXU7qs5JNvYtBhvQvD4fFdKIro/k1Ge2FVfwGInD5i0RfVTAtB7QTW7jZRs2M0KH7YZjXEGPicL5BtiILaJye2kvDtfN+APRc7j6c4snQhpRhvFjNgxsrsiftHmZ7usUOVxXCIvqpntj8aREEgc1Jch7bEY7qZP04nCzZp5xhQTk5GJTqReHW5kYZaFUqSnxXp1umfb604trymG7IKw79RnF1MnUzsrnswlnVqZGFKCZcc/U7XrhsGwy1bEO+tOfN9RjT0kcdh5nziq1q4bQElz+yJwgwLbN2k4WKJB+uoiA806U3etsB6gmcDwPgc20w1QaOcBGTVbelxQoKfB2UCA9nAaPruE/1ln+rMDbMXpDtJKdjZaJihyixIGy4k4+dQtgJncJNhmSlC9KCrz1FBBetT5/euB899efmJr+eNry77+MHzM4i26cq8YYHT7jU5/V2k986rNaSHlfUqCkQEmBN0kBdPNmnE8Ulr7N2OLTb+a5akymuxjgZ8Q9ZRKN/gWGVrnXqvMDBEbfnLLEkgIlBUoKlBR4dylQutHe3bEve15SoKRASYEzo8C/Ae3sSSxoM3UeAAAAAElFTkSuQmCC&quot;&gt;" style="rounded=1;whiteSpace=wrap;html=1;" parent="WIyWlLk6GJQsqaUBKTNV-1" vertex="1">
          <mxGeometry x="1560" y="-375" width="550" height="60" as="geometry" />
        </mxCell>
        <mxCell id="oIUY9aex-8VRX2s5J3Bi-106" value="&lt;img alt=&quot;&quot; src=&quot;data:image/png;base64,iVBORw0KGgoAAAANSUhEUgAAAgUAAAAfCAIAAAD4LCmOAAAT2UlEQVR4Ae1d328ct/Hvf0IYcNENrLhJbcVFW10LK4ZsqKnkVmqkwmfYMvyV6zN0hnFCThAuyrk6F1pVuKirr1cQFgI2B34VInmIgfQh35e89cVPfvK/U8zwx5Jc3t6edJbtmgfDt7vHJYfD4XxmhkPqJ8R/PAc8BzwHPAc8Bwj5iWeC54DngOeA54DnAPF44IXAc8BzwHPAc4BzwPsHXhI8BzwHPAc8B4ADHg+8HHgOeA54DngOAAc8Hng58Bx4FzjwwZXfhrWr4e1fzpx9F7rr+3gsDng8OBbb/EueA28PB4IPw+3Gy2dfvHz2Ofz/9YOvFs6de3vI95SeHgc8Hpwer31LngOnzYGzt2p3ngMSNH9sVWbOnplZ+PTHrz9/+ezzFwefNj86c9rk+PbecA68hXgwMTs78YZzdSjyKrMzlaFeeFMLB9Mz08GbStzbSFcwPXsChn5w5er3PZfqP3uu2XrwAkCi8X3tww/eRs54ml8RB946PJhu7jOWhstvBiTMbqSMpe3rxx+d6c9i6M/d1wkJU0AD7d4fP343CPnwdpgyGq/NjxISfvb7sbs7lb99M/3ld9Nffjf1t+TSrVs//dlrDYBfb8OQb8yehFel3r2wBAzdbx6DoSpA1D80dO6jylcHTQgf9e6EV14rR0txwxfSOXCtGR8xulMrmLG1LmOsW9PfKnE9BB6MTS21duKUsuxDaXivRCOjLTKxHMKMHB4SgvH5h50o0TvA6NPm9AnIOzkeEFJZ3sb+lIeEBzDUjCWta31JD+6G2M9SAjG7npwcDwgJ5tdiOjJIuPDeX/9v5uD/rzv+fXPxYt+Ov/IfTg0PCAnmmsDQYSHhwlc9FSAqZocKH3129KfBsaNgfK7e2UvoUaYAWC9ufpK1MTZTa+sqgqbxVn1+3LQQkIFaFYxRmu532/dnx7Ka8ErIuVGWHbaLoRj1IGMHrSmrtuw2WN7uPzludOA3ZytIT/eBrEh0xG1IuTRDML+RMNqtndyWvd5KyuPBRK1LWdIqZpvoVEk8GFtcj4FNRzTZ64Ybjfpap7vTjRKacUdy6TS+h4eE4DKiCGMsjaOdTnOl0d7qdnfj9KAcn/r0yjXqfYoWPR4SEuQ8STcX+9Q6BV4UfErhQZ9KjvF4VJBwYWztXzoSzDz91/SX3/1+n8PDNxd/eQzaRvTKKeIBORYk3L6DS8eN72sXJwbY/WcmrvGY0hcvv7xSyJ9gEq0Wxo7SeLfbWas3NsLuThSnSUs4x3zoQeaSPSjQ3OxG+yncHyWdm5r7iwyku636Sr3Op6HCmDRcvqyBB8p58qSOJeX/9+YLjGJCiMADlnYW+vToWjPGueGaHAgVB0nifN2NB4zRcEmjmrea1wzBXDtlNLyTK9qHzBM+1v2D8fuICCXCGGXwAGGNMbrbmD1/QiJH9/pQkIAICXJ5e3K0o5Ef9eP2cBhIQLmkPcpouOzsz0InZTQ9pKeOB6DBTu4lnJmN/yDdgpl/xOc/ek9y9eyZX939qJ2+O3hwDEi4+z8vn62/+LolUoluvO9cIfjg178V8aJvP3vx7QA8qICFyViyudRv/lQeQAm631o0VURwud7toS+rlJETUIPx+dUI2kg7VSXSlv6VQlD8jXqQ0h6j2+7JsbgJkyPtuSbHpXrEWPfBfPvQ9bpFD+/IPhjK6ZOMak5eTjOgibZXLwaz4q4N9auOB4RUGk8ZK9F6CTzgeN6taRA/FGGvrPBEtZMwlnSqA/yvcZTmpD2nBG1kJOVG/SQ1V6pPsD+6MeWsj8vlZidlLFnPu8Vo46Sdzu7p+wec3GD6UUQZjR4dbzV04hd/l2Gi/fTnjsTIs2RwcMPJuFE8dKqzUVRcUEcw3QCG7jXKMBTwoPHVlTMzC3/8AdaTcysEanXh2Wc/QNIRxpcK/INx1PXJRv+FjGAZopOHbXcJbo8rZdSfgVNrYLhnIm3p3wIGaT9xPdjZhMnhCKgiqemTTuSaHOMPAQ5qAZlaTxzGlkWP6Ei1tgOI0LlhqBdbM4CJ1t9l0egf1aWJBwQDyC6GmO0NxAMea4sbA3QuIcHk0nqUgC2An14SrVc1CJltHwKrKzfbETqRMtAUTK+EMT4B42A/rJcRedWHMpBwrZW4AFzVoS7GZurhfirCo0fUQcz52fpWnPL46VESrS4u5taTKzdbaomCJlFroHJXzcNFOUgQcjnVOgA5tGNG2N9kfcoWiMtLrV0Z/D2iyY7GaagwWxVHUe7WgsmljUh0libhvX6modEBeXMCSDi/dlk6B9O1P8sKT/I9NvswjMFbwg9NwvuToroBQksIwXelfCa7jcWF3HryRDVjLLXE3ibbkrFku+yCX3lIEHjAWz57q3bz3yrB9Nfvy8yi1r+3r94SCmwAHggxsw1grWeoRln0sJ/tK3XIJXynPx4Qjiv7TTE8lv7VWiy4FGLPZ30uoAqKHnDCmhy8Puip8CrwdbtHFj2qIzz8YMKhhQfVJ5T1OlVsx80udE0yn4arGiWzh3G4omtGoF9Pagj02Z3GnXuTdXs9eSmkxitOHg7Eg2qnx9jTRr+hFpUG86CbGEt32w0ICzbDA+gKzbwKxIODOD7oLGUhQhGJEm+tdmKAk7jZf5nU0QcBCX2XAcYfQfJM54bjVf0Rd3hZLwnXIFLZEKpQ8yqC+XYCfUq2mhDQXAuTHqMUTAOVXyS85oOwiUzoHkL5ISOGAhJkWFanUV5LuUTDjYZ3DcME3GEW1S/xQKpaP0D+y941d0DDZfkJDjyIu11Kn3ZgNFc7uHY0rHUjIGHotKWr/1TBosofBwTAJUcKvkWsg4pBqTe34mgd19YGC62MlMoBBanmQ67yi7guoEJsBGO38/FkoNCSsfpaGO+1Cki3fhKQUJhVQggx8ACrOHvuQZ3vQoAtac//19p5UIwHlxowf55wVWZRJG6XYHk2qhtiaJQMVtAcv48PlRo1iogbQ09LOXcV7PtM1oBRATugugg+NXgqspReDRCmZhOioEImXsyiR+tIZQWCXenjzEEy8WC6lTC6vSRa47BnKlVUU3KKTdQwyCZVzWo7Ak3CNBfNxAMRD0+jjYbUXSimxgpJAO9YPdK7j9cD8QAqKZYGQgh2nnYfaP4A4XNJ8Rf1keXBcYZqTCQTdfCLFeNy5DoenF8ENd3rSGbbRZC2uMFtE/tHeX9JhJSy8SSEcC7LRAVHH8+jm6zwACuhu/WMCwEEIgeOgSSCf48tPoZsn85t87F+l8klyvfTRtYi0sCjmabIzzY39WgDxhPVHHbggY7lJLgB82i4cSHB5ArElONVaYzrXSi4no3VSvJvSuVEFNRFRAjCFetwDKgltCifmk0D7gJPTZGmGVc6UT3znoP5xynYNB/nqOJhk6RPUCVXPP8AYvEUjLNihubxgFcVXP3h2RfPW/nUrGI8QCbEj4oMQpC0w/Z8nmL1BJN2REhAU6Pqd3WB3JNGDMo5d+rU/zKuoN6wLzKxhxANix9lkwPtJx7YyUqp93FdIVuQm4TglRlgyeYdvmR0pFLfpVBeLpOgdClLEZqL17JxQwTVhWQSEkBEUpMzvs3NGkUPVGgIIdMsV0KCT1q4Zi45ifQiScYT1Xd1UQoPZMPqLesCfQipN7PfEJDYDveIEQ9MoQEfilmaOqjvAl+ySoqvBBgUpXCV4QL3ISxDW+Jc0oKMOtTsuT6i+IpRdzoihnwX9wV+FWBgImvuNU0u0f+VZgXBuKcUYofIazUZ8urAg7Q9p5Um4Gyy3QITUC8Mi6AcDJKWgbBWIfftKP0D7pU6Uw8HCy2OnZqBkljIEpFT0Wk7Y4G82kKG52qTtQ78FmBwMJih/fCAXPke8OBCrqkSeJDvjl4LSJo5tfVf4bo0HqCilDoL5dzKL6rm18vMxjSxtwKqeCumsFZKvA4SnoVrCCEfQxqSkcKnzTt4ycADwm1ZlddpzC+syuAhYlW2UoLhKXHLhSq/GI7NJS2eHg/0C7UcwBq4QTkQh4rU8A8IAfolb02mqbtSeDBIEQBxLh8CZ6PoAV6bCgXHRAG/ftFV9BVdcDAYlM8LrhqztJtdKw6ehUxYhksA+LnuPuqjjtd6L9S1MhPsds37cmBA+LgyIV7cKRHSo9xhqBjZqw3/+anqw3a4E8WHkH2BH0kYdFNeC29PexEqE3Bezl6XYOCyys0uu+5GuX7gHjVstd9PmdBCCRnzzQjVtQBeq2HWL/ImlLu2rN6iKwEG5XyLEePBJzh/HhdZ/7UdViJeRMM72EedgXanxyENRvHc0r92Yfc98FlqPSOgiipYLgnopaAeXG6VFIqKTWKseZfHA0IqEJpm8RpAlq4ZOHIYeMAnlLQvsTDEeOGD/HE5ZEizMK/hWshYn/J2DwX91rwWXVVfA/EAHRk7DKde5xfQdCk8MImB13pRC0Lt1r+iYKVouxwYQOE7YNpmUGzRjrc4HoPxIM3NCn3U8ToJH1p9qddXlueLo1VAQ2kwyMmlWjDAdapsuUIXiGAONrDw7SPdTVj/wEi3xIBR4sHJwABYMcL8IuBBftRwzAcLLZTIm726OsPrZCs/4vXlOTvA4q4NSSn+bygwcK4fiPqP5x9w11BqLiepGFpRkeF8Eb6eDHk78NEZaJW11lRPjAeEKAtpvL6nbxSA0ZCoQQjBX3U8z661fln0ODrCw7CwAqprBoKYauKB7soDkZmBj9UOiwfRir16Y/UQOA30myrY4n+Z8675ari2lJGrgxS53jLojGaXSQwPog2I7OdbI4SUBwN4HWWi0I0ojBfxMB8GTMwlIEIIhryEVuWzYuDCtatDw4BBDg+IcDarsKSvzVtNIDByR/UwN9EjXSgoEhtO5B+cHAyAPfb+g1+pnPZh9x/gqLnX0AYLrVs+MfQhTDOMA7gsIccg50LGjjL5R8OCASHkyqfPn63j6XVWdU48ODOzsPDjt1+8+PtvrNLZLRoc1upg9itcoR4vzje19F3efyKEh8gzOUSxlH6w2WDBnSb2UEokFN0EL0czCs1SPEQjtsjp6N4Bg19lyg7GA0L4KtHTRtXIPITmbBWPjQIfQKKykC8pjBfJRQiosFAI0bkxtT9GSkwVnOPjQP8AXB/gJaPx+qK9oVxW55IYuZ4s9uM58ICfqaAvysv6Cr+HAwOoCrfn4REXWWqT2QQXaMsf5+vJ+02MWPLFkFTfxBBchtSLLNKCetlYTzYb6XM3JBjk8YCg/YUJBdIdhqY0kUdJ0E3doAprbSpGBIKezUM0bSy5KRMvGg0YIJdGtT85qD6BhXDnesxAoQ1w/hvyGUxCQENNRYIhaRNo+4yyXJPPMu76FcyeHwMM4OUzjx7j6db24UU2HmhHGFWb72fN5q54tgVLC3KOhY7Ys7esjs00oh4mGqold4dZTcj52TrmvBl2p6V/c3Q5H2hij79jMg+fHCIgA4+NUogZzhRE7jfISI5Fj7MjhKcw0GgXVh9k5qGZXyToxsoP281tKleS+Q+8UWN9WIKlyr3U8ICHnkwhHLuJ89vEAwjruW0jQVDpv4czUe1gOik7SvCwhzqeVwGRaOEEiVxMO99UG10HHshOMpULWF/rRPup5VhlxMLVVPMAxKveT7ObpeUdz33EmbwfwXkbaqO8PK/CygUU+aa6V3EdYZHpSV1JdxcWF+Woi/REdhi1V9HKWG2He0nxySFTa3h20Mow2f2WXBJCMDZq7ZvXRR51nxwdyOulMZwlICmHCuX1cf2DD3lc7nFfo0GORcnvEZ1fZEtmo72T5ZtiArFki0yS1oVWDDnPosa0v6QL+2eUeRvMYR1HQipQrqJECNU47FQ6Ujkntng0NrpF+aYXlsIeY0nb2vFbjn2uw001PBj2iFNIdeVrTmkcbUFOOT+vIump3lWqm2A24oEWYXsVCojzKmjc1LeCohrVz6sQxfIWJ8q5tZ48MPqqiz3nFRd+aiQB66UwfqAWLUz+cptAOBbWvOuDB9KA1uwtHkjIbRXiixaU6o4LNs8tUZXaLvJNdbNGxwNp76qk562E9rpdMFx0qw4cYmN53OwpvyvjH/CSY7PWYXBHlB7GLXVISDC9vBmp0+5oErXv6RsonHggd7HJbResl8ZbjUVlSrgoJtcWF4cDA1ELbNnQD9tijPVosl1TWWCVhUZXnXZ35KAkmIYNayD0sA0B9poZUUJox9i+xChNdtvLOhscPZpa/MswYODwDwAmWwe2VOkiT4Lp+o7cjIbbVeZ1f3YUeAAnVfxlVGAg2TSS802trT1J1Lwhg/sDhJYA39QORL7XLKcF+BYzLhXsiGqSb+GBFA+1M66XRGtFS2XB3OKxwEByz/rjBxwPLqo/gfA825Im3yj6hr173WxbH55mRpOwpmXWjs0YB97RXhJt1OxDbpCBgl18KvWSaLPhmNSof/WSeJ0ZLk5qDbHnJcBxtzK7tFJoS/UN+vG9AjwTtCweECJtR2kpcotNCwpxwnjluFvI7svEYkNNWNyo21jIEme5f6OMEtjaom2D5RtptR5C3Yg9OQLsVv3fy8xxxD/wHPhv4kB2OgWeXSH+RJo/4/q0xxjOL6LdohOqXyVFuNCtb1Tq01h5/6BPBf6x54DnwJvOARk+KnkO9pvdnWC8MvnxpOPf76yTtd+sbpzy+aZ650d7vqles7/2HPAc8Bx4nRzAIG0ujNTvjxa8TkqttnEBSV+StH5/Rbe4GlG8iqla9v6BYoW/8BzwHPAceKc54PHgnR5+33nPAc8BzwHFAY8HihX+wnPAc8Bz4J3mgMeDd3r4fec9BzwHPAcUB/4DyZPKld0tTKkAAAAASUVORK5CYII=&quot;&gt;" style="rounded=1;whiteSpace=wrap;html=1;" parent="WIyWlLk6GJQsqaUBKTNV-1" vertex="1">
          <mxGeometry x="1560" y="-435" width="520" height="60" as="geometry" />
        </mxCell>
        <mxCell id="oIUY9aex-8VRX2s5J3Bi-107" value="&lt;img alt=&quot;&quot; src=&quot;data:image/png;base64,iVBORw0KGgoAAAANSUhEUgAAAW0AAAAkCAIAAADNQ/xlAAANnklEQVR4Ae1czW/bRhbPn7G3gRcull272RSJm6JdK0Bcwwnc1squ3ViL2EhsZN21DDMIGESGoTpKo3RNQ8u69IaCQRhghFmXaA81kD20l972klNO+XcW7w2HHH5IJCVZsZoxgogi5+PNb9785n0Mde538u9NIDA2NvYmupV9DgECw6gb54YA19+iiMOoK7/FeTiLYxpG3Tg3Jv8kAhIBiUBvCEge6Q0/WVsiIBEYGztH5J9EQCIgEegNAckjveEna0sEJAKESB6RWiARkAj0ioDkkV4RlPUlAhIBySNSByQCEoFeEZA80iuCsv4wIHBh+opevqbf+XBudBjEHToZJY8M3ZRJgfMhoLyv72mvTx69PvkK/v9+4/ni2Fi+JmTpNAQkj6QhJJ8PLwKjt8urL4FBKr9WC3OjI3OLN3/9/qvXJ1+9OrxZ+WBkeAd25iQfQh6ZLBYnzxyOhBSKc4UzKNbwiqTMFmeVrsW/MH3tRSuJMkbHKtWNV0Au2ovy+xe67kBWFBEYOh6ZrTRd19HXzhiVzD60QKy7faWSC1+8/4/vrnzz0+y38O+Tncal+S9G3xGnb7DX1yvWsUsb5YkBdHtxRXdc2qws5KcS35Fp78KMfVB4flgBN6e1qk8PMmSirOgt1z2sFgeAYVIXM6Co1FjvNIdlw3Vdo5xUvd29HDwyPrNSbVgOdYM/SvUv27V8avcn13QnL5UoU3eqRtOhx4Hs9tZsX0UsrO2hWH2hkpGrf9r+ae7wlxvxf01rvK9y52jsRtUeGI8QosxXLJqfSi4+b/mOTOex+W7Ow+O/DszHuVw2uuGRQtmgrl3rglUjGBS37Rw8MondZiC9jDwyXtq2gECOqX1g6DuaulU3GoZpU2MjIudAvuajEmVhxwb+cCxzt6ZtVuoNw2w6dgZ0cg6mT1Qy8uml3RCDzB38NPvtfz9vsptvjkdywtF78S6o5M4qhlS1F+VLkyl2xsjkdeb7PHr97XTvwp5iC4VNk7pW5fopdiE2LdojE+tAYNUb4vOE6yw84q1Duq8Vzyc08WZuZaeSTypoyZX76nK0G3QfqOSduz/4Zsinta/fPe8vh3dHr2of7X33xuyRdoM+zft5qeTu31+fbL/6vuqlZm69lxgBufDxFc+v+fHhqx/POI8oKzp1nSel04Q51LbII4QUtGeue6B2coQynYu/UXPAEhrMOgyNJ+XL5FLddl27vtQ5VrKB3t7g7KbC0lMUa7kr4hq5/dEBN0b+9c8/xO3tEZ9WUuD5zTxWZjWTuvRAyxJ2BR7Rnk+PzC3+5WeIs8YiIH705OThz5DEQT/oLNsjE/dM1zXVy4ObzzCPEOWuDiZJR2so1R5R1vao61pa57VKCFGmVrZNu8UDEC3b3F4SVlKxdgSxm8JyzXSgDHeIlNlN3cI74Hk0dTWLsviQZqGSxTrELZ4utQvYFXcckGxyqXbAJPMCTMrVleq+7YdUnGY1847QA5Vc++5zHhO5crNX888bmjKrNryBOAfV0nlChDuubYQwP19Ud4MomHNQE2gaFMzZ4SFCIGindmO8eM+wWdTs2DG3Sx3MpfE5VfejVMfU3ssay8tOJR6PMA0ZvV1e/p+f6P34PZ6pqf5v79ptTx/SeKQbDMl48Z5uHfFQomPWgk3FWwhchT1Ix+dUDqLrzZFXYgLMgWcaMweQU1zzXtg4uKyarkv31tiIIiBH15Q3a7x/QkJ67lj1L6fUaJwVDSJ/3oOqwVUqjyzVW8EwgnqRK2WheoghiP2atqmqmxX9EEAUrBiE79CyDusrV/0V7XlMDqv1oG4BDeX0Az0q6RDtwBiV69L9SinoOhgAKoptNe36nalAsvkaxFSOHXNHUzdV9UHNtPWsWg9te1SS6lgGcuDV75f/w52aHz74KPIw91ccmmUYjtOoqJtqpQFESQ1NMyht1mGmtgy8pa/wkYNe81FrTzAoFkSSEnjENGz3yKjgpGNbMS3nUhc2DNCJlq1vqQDplm4dVPnD9E+PStKyRSEewVZHxzZUdooEjqK9/Hfk5EgmHsmHIUETONBqGLYfYkjikX3DPnYMhIXNkeBHAObW1pQHkLKm0+h6nLgPucL6IhSJgKztmA7kFuzaPJ/gCI9gJDWYcShPKQgs5msUEKJZ4UIkTFYqj0AL9OlSQlXhFuorNTYE+4MwjqD6XTYAhC9iHaHH5DwWgtCTKliweytC22mX50uw4lv1TnWUqbVdz+axG1qETVB4196eCXpCjxRYMNUKC+pErsZLjyEwXr8TuZ/yVQiO/HDpw5TCqY/Z0ARbbALi76hXPugzGMDXV73GylXRT1SWnlIwOubZ0ziPgIr6TZFJzXLbKNx1iFKFCqdKHy6gXFVB9mdaB20mhMR5hDWjXPv55NHL6qVwo4SQTDwi2rPpGJL1aj0wQIiyXAcQHy9g3wk8ElrnLB7hWpVPsDisEerPDiFkBf0D7ykUmYKTEEc1sBIv4/SKM0IIYUxxWPX0O8QjbCwCyxCifFaFmQrxCEFFEpklCmMmHglM2Wh19h1tFl9QvwyymNtguzjCd1RjWHrVQEctLeT4Keo+gOK3kXLhkUimBY/2G2MTat4P3CfEyF8q0KECWPsMmCJC0mOPRMLEmlQwdu8U7JHQ0HDvcq37gmE8D/GvYMeLiIRbK3dCE3jE3OQbHVT0dFqcZdYegpziY0d6Fr96JHJYDThLfCxct+MRMv0CeOSiUJRdZuKR3jAkgBtfmEk8sq+GQNwC+8Lj7lWIsdbEdAn66cG2d70K0TjcBXFyE/TWA/8zHLDII0rIIeLQ4Brk4no3oVbPPOKGx8n78z/b2SwImV3Fcxp4HW4H0QXqi/0ZftOdLhiJ5LQaxmdW6uiCWVseQSPKpjiTeCdCcJ0ECT/rnkSgndOIj4jyhXgBHzCr0Pd+lYmFVUyN25S20HgJgllxHgmrOAmtGLFbqNmqp5i1YgXh2iORyDYrFBAvT4dHwksoFUOiTMyvVJ4YxoFNW9QLsXltJPBIdJ8W24frCMjYAt+2Pe3Fzbit3rIG1xEnsUGc+tCmgkVwYcaHHL4jgp4hX4M7DNW9GE64Mv8G/Sb5PjEeCUuCumVWwbWO/Mugb12RiCewsgBBX6ozVwjRD0nmzY24R/Chpn32RiKEkL7ma+JDY647ty9wNCKPTOIpKQh4mwactVHLj8HI5eVhxgKlFzWS45KggvgI7oetUV4j5TMXiXTwa3qzR0LqkYIhKZQbyL+OZTb02gNVXa8hiIJhHrQXhpSBwZY9yzCux3mEoCvKjLtS3QkirN3xSNiiBAkSJhFECoSOz1mqX0NYiNje6WBRdvJreLAjQsMgCfP0wn5NXMKkO72QCLZXeoI5GryOL7YpMCxDTmmSEPF7PZMINimESH75tPb1Hy+8y3vKfX4kPrTOawDLO0FMjhBl0+wLj8S8ej6mjp95SYQQMn3z5ck2vpUXaTnRrxmZW1z89cdHr775c6R08DUvhoTxshj1Q/eBL8PIQkjjEWiN1m8F8sDVZYhDAaHfqlMeYSWEdPRreMBFZH92tCoa/cQMEReXdTwLzlNvPEJIERpxqdU+pYfLsk2cdVWIs4Ylwbw0xJ/ybfx5SWS9pq/PhJKRzB5x6iyPm6AoLF6YzZDmM9wfEoHW+neeNWFo4l7HRBfskXLDhaMKwXzgGaR+2CPKLci+C/k7Dlv7zy5IBNG7/xh/JSD6ck2UR4RXbJYq77UXIy+GBCwIV9zkC5BP8ZdhTh5B4yAWvZpQD8C+q+xRL8LK5McEcDSYzeKszUpSnBWFoaYq5BPGl2GmfHFZw6AYveVrsJ3JJRZTcI9ts1GHJB+cizetI34uXlnANKnr5bp43lewYiLwMfF4RvZQx8QhNGs2HW5FszKR/2cqh6CPalIGN1LU+4orx6VMcq22yw65BKyXoCix/BkI1jHvO7OFry1sBpnjZGEy3u3T+zUJQ+vII8z2pN50VIwj12rCHsJnJLx5ijsbH5dgEk+AeX/s5zv52wlHJpj6m6q2Y3TK+17E99nsGpx2yf2X9LKvwCO5XvnNiyFhi5l66W3I4zYtBLErv4agdRA7Top7MCRog4AropSc9xVjiOFZw2PvrutLu2vTlmE8i/AIOBydD9Sm+zV8EseL9+qmd94IA6PHlB5ZVcxaQxlldu2J6b/FR22z9mWQEyEkkUf46TUvnOe6Lcfa1UoCO/Lehc/rpUjiVniWdKlMlR4IksMrQnV1LjBQEhQFmoFX+4LxUsfaLQuZ4XhHM6W/9YlE/LZ7ft83YWgdeQSOvXgnDlzYMx6UxkPle+ERQiKns1q2udUpEKbMl7oiEQ5f5MdHGI9c8n+C5GVwFI3XSPzMjyHxD1tCpntfK50X2DW6EMKQMglCmLPAQuw8KztIknTOtbCo+Ufa3OPYggrzCBw5WQ70nB1aE8WFlQDnWb3zKYkQkQxx1nYV5X2JwBAgEJyCxzPy3k+iDfi3AnrEib1f4yfUemwtd3X0bZ9p4tmweBvZ7ZF4XXlHIjAUCHA3J+PvCZy9MQ34fV8RgD6+7ys2K68lAhKBwSPQt98fySd6v39/JF/vsrREQCLwViEg/Zq3arrlYCUCp4KA5JFTgVU2KhF4qxCQPPJWTbccrETgVBCQPHIqsMpGJQJvFQL/B/EqeJdedk0FAAAAAElFTkSuQmCC&quot;&gt;" style="rounded=1;whiteSpace=wrap;html=1;" parent="WIyWlLk6GJQsqaUBKTNV-1" vertex="1">
          <mxGeometry x="1560" y="-495" width="370" height="60" as="geometry" />
        </mxCell>
        <mxCell id="oIUY9aex-8VRX2s5J3Bi-110" value="&lt;img alt=&quot;&quot; src=&quot;data:image/png;base64,iVBORw0KGgoAAAANSUhEUgAAAocAAAAiCAIAAACiOOTBAAAWkklEQVR4Ae1db08cR5rfb9LKiuh6D+SLpSVeJWL2FpwjXi5rLMHF7HosG8vBayzaaw3KcNYsHofxiuZQmzRyI9RCaqM+XFJ0WkvJi7s3+wHyKq/4OqfnqT9dVV3d0w0DGexCSNPTU11/fs9Tz6/qqaeqf+HYP4tAZQRG7Z9FwCJgEbAInCUCv6hskG1Ci4Bzlqpo87YIWAQsAhaBUcvKlmstAhYBi4BFwCIwLAhYVh4WSdh6WAQsAhYBi4BFwLKy1QGLgEXAImARsAgMCwKWlYdFErYeFgGLgEXAImARsKxsdcAiYBGwCFgELALDgoBl5WGRhK2HReA9QmDkzq3P/eXPN/4wOvoetdo21SJQAQHLyhVAskksAhaBgSHw0Weff3/41+O37P+n/S/bH38wsNxtRhaBi46AZeWLLkFbf4vAhUHAvexvtY7fPjt+8+j1zdHRkdF259FPb58dv23/o9O4PnJh2mErahE4QwQuMitPzM5OnCE05551Y/Z649wLPV2B75oITofGO/60O3N9xj1xG0fuLN/70UTAox83Xu+3gaoP7/mfWWY+McL2wXcFgYvLyjPtPUISf2k4iHl2PSEk6d44uV7MfB1Be+4PCzFji4LlsgadhQh+NTLZurIaX3359xn4/+/fet9cmhwOGZdBcQa/uYv+ISH7ndkzyPsEWV6+6yckjdbm6xOzcFkXO6s/uH7zy3+8AZ/2j1uf36lfROUGnRmq09B/0+DheOWq2IQnQKDRXA+TI0IICR66i5spOYo7zOrOdg8IKbdYJyiw4iPX2tERSbeXS8S/HECtSy0qK+wkrDw2vdjZjpIUoGF/aeo/qFj9wSWbWPKBCusTszs+/7gXxnIDSPqqPXOKqp2elR2nsbSF7alGzChjjr/2edA9vSmvwMqOc2IRGKH+davx8v9u7Bv+r6/eNz7xLt+8shwMEys7jju/FqX1ifmzL2GKTF3W5fISDu03f3pyVnPmM0N19mlsWblcvqf/dXotIoQk221vtde+O768fUpWdufXY5IGy6cf9t/oxNVZeWI5SElcPN6uy8pjC08jYLOjNN4N/PWWt9YLtoMwToNHp8e8fg71WcGdRC4H2Ubhdq+90upuBsFOlJxuUjIIVnZqEfP0Lc9bYf+9fUIOww7/6j2YLxmyVUS5Eis7gyPmT775tz2Fj//95d9nvv3hOiXptYcVq30uyaaWX0TJVpVR77lU5/wKOQExb7z8K/NOX/uwT7j1yIdfMS/3s+/PbRQ29bAXJf57KMvz0Jqb7TCO+Fz29AXOdGJCCqcctefK7lw3Ial/7wxdM3Kb5bny+EPk5QLfai1WxpEFIelOa/aSXNzPel2LmHGQQo7i3t2pwYpiQKxcj5gF7iDvQmUVqepdVGXlwRDz9K+3BCX/8Lv7f/qlCMr9cOJXC99Orw4VK9fu//WgH+rUdYl54+Wz4+/aP34H3mnwYH9qnAWPzN1iHuzjN+2f3p4jK9fQ86GWy1BW7lFwynU9tVWLflriA67bK6dhDXTXO/0ERq1k4TeZlR2n0XpVWHodVr7RTcBHszwsK5+i+RPNXkxI3Gv2cUSMg+OAxN25wTIy1GNwrAzE3HyB7bldFemfmZWBmCuKQMhMvfj9t3/gjutry/+h/obfPjDackPCc7lVt/+fS6XOrxB35kmYkjR8UiX4C1j58Ms7I6Pt9lcY7aWvHPNV52fHb/4Mgdno8T6/ubJl5TNUnAGzssprer1r9sqbvYQkvZt6Lmf3Xau9e98HN/Y1Q4HVWdld2koJiVp9mM9x3KnFp2F8yJc6D+PwaVOiF4Zd43Y3TCANd327Myt+hHfAu7zne1W6vGhRFVa4Bv6P5EWzLyePXff8vSTFmAJylBoqc2nW24xo0AE5isPVhYVctFfjdkcsXadx2KlMsdimesRsYOU+UoBCyptZ21pVEYGQl3rxz3/5gS8nJ//yT+pvJ/nmTt2VwfeXJj050sLUNK1LKzmQNA5WmDris1y38ZMrsFMicVbiRLO7S5V+2XFYie7kIrtJSBr7S5NCPbUqOdC1pHbBKtJORx6JslLcqUUeEQM5PihxC43NPvajAx5gkcb+w6lqeFcnZsbKNFv3sv83T2yFmvuUR19/9+T75csf0TTlrAwhVS+aWSVdtHV77azerhfyNCWwQw44zVBlyT3ZE83OTswsQKpZsKxw5UplIC6LGW+b5ZPsdhYuOY6b3SFxIFk5aEiyrgaEqHkqxSlfVDkmYTezNkZ7a7zpuJOLWauP0nib1m7c2yWERO2rSpEOsBqJn06rd8U3lIsMbubM66PGIgv5IpcdhE0xkFk6Q38p4ZTmi5Qc9qgmjT8OCSHhY3XafAUVaWuJdUhq80VfOYh8bhOwfF18CphJ1HswpdggeAam/rrEMa/qrNzsHRLyqqVWnOGRfbjznX0QRbLTbcEyZ9vfh3ZIM2zEbj+K9nuLmQFivnH21GovAlKP2qZxRFaWdsVYoXANffwJ9OjeLe0x/WvjEUyoyWHsr8GqbYsZOGmG7c53Y2hTvNmGld01Pz4kaZrKvhqaSbrvtxGE4ADS11zAYMRcZVUGNCJTeojL6ScFp28zVY3XUTJ/7ycC81POxOUed1//1zcfFiSqfps17SDsrnreSqu7k1DxiPhHU9PULk3dQkJ8wKQsvHZ8bslb6YQQh9Wj6/pNtEvlEscS42hPXjrBEl8FwWEabbRA0zYwYiPpLbCmqlUCoYLaEdYur72J8YpSrAqWEgVBmr7qQe9b7bEczROCBrqOCNdSr70ZhU9VVigDnRFzv6hjhZUxv9GPf/OS7lqGjVJf/6+2U7mclUGxZVW/B05NmC1c4XWFO6ybF8JOI2GvzC+teJ0d8J/1aEzGLZQlXedKmQVob6P4txbFcImXpH6qDMplkUBo0orHMglarSBN91A6awHm6/N8dbMOuat5quVJ3yAZN7lM6Gpksm5vjUYYb3K7xyqMQcU4qyPRWjbyAUqBSVroCdil6uDldHPF88Dnl4ZPMfyFBbv0V2M9J5odhNGAS5T3O+h2CLKIas71l3VIXsApsESdbi2ystwlUCOV3ZAv+GR6AkMvhc1f7YZg0km8LrYkqOJjS6VJuI5dG0gEKULYICgYR5TygJK3vDorQ6nKKJVnIX8iTGnwSJobO5RxU/8+1WrETpu5oxFMnosWOs6EBz4ygZpcRtH1pQUgy8MeR1pPR/tJ1nv13/H7FebklqriOBTi/Q4dFhraeAmFKnZGYSbpjpeh4M5D1L5JAMZa4M2xheeg0727xUn4LxorG2qoSaFqM4XG85LKP/uJoOBpaVF569SsjCNcEnclCbIxn+gRiI/WNLVL32j3ZPfsRAtCP3c8bpfVxI7j9JM4lqhNLGhHkDuL23wBa0T+PYqTWopp/cidA5VP+XCeliKNgB33FkxojP2IhrNKZqVAOIW33akVGL9Gq4qxziXPszJN8tHyn4/frr7OD7zLWRnbmM3bgBv2ohhcbkw4MAdKfWoECmGXhI9ppO8OrnOloZc5Bd3554lhsqg1VWVQWrTkmaPLZ7CAJjRzGsO2ubhVs04zV/PUCsy+Puz0ssmx497uwRTh+TwmoGqmeUrNN9sbLclBiQufJESlXwA14gYQskUaE4qX1US7yte/ghpreUhfASLRi/m6oZCdob8UcwpkJY8zcJCR6ZXjTMGqMxv/GZc+6aBWACuLz5De/aIDNkSuvT6qyBpaj5WN0+0sMwfn07Lw6G/Uy7RNvUOI3UGXqgz9HTqSPNqFu663A6BImZdeMj4oi3HPdT9DhnQ+zQcQWQJ8Nu584TgO8muujdhv2X5l46QcEwgFynIuuGKUrI5vCtI6DmhENoHoL4UKzdTGoYVFZz9UEEGWWLka5FzZXQH/pS5B9GqKHmHSBLVLK9WD7g+DqgxhPXFfiWOJSXdOztfQERyc+YUr0viVqwz2EWECRD60a7FEplIwQCYbT4gHsfScGouf+10wSo47gmKKnihiZef+V8dvW68/yz1XzsrUcRo9oT47UPXoSbN7IEYe0C7BFiZAdNnpynAFRmD69AOCdcVaW67G9IbKQPmiUUkIrzk+g9lybpDNOi9CzZPf7fsJWXFtN6kZ12fZCOczZU3AOGG8ztTPxYr1X5TN1b+KGudrwu/I7YJ7quwUyZZwCriDrrYjTaCaQx6XO5l/nqoEH/vyyrAVkLhDd9RK4qNrKHp6ZDQuFZYJ4MN7eJavU4+VpemClEd2CTXTFRp+RbxY9fFaNRMINgwkcn9BlnfJFeUDyZVnTIth9Zpl1BOimCVvmPgd4CMBBAKb25jT4FxT4EbFY0bqUTKrU8YZ5hrKUqjQTE3jBRAFF9VEUPCwM8B15YKmoYpx/cc0/Aurk9KlYdF9uumt+7Bl7jBl64sZwnpizLBM4piATjsEBnom8AN1GrHFRSUBNIAvg4ksuGGi40WjyDCTrObi0SIlEQlKLjglZ+67ksSDZmU69A+WYeRyq5fiaB5MMAWHWVs2b64Cu64MKAKzLLVFX63RKgPp2TJ3tErtirhBIvq0R81TK1D66o7PLbY3gmA3ToW68qEaDChVe8tMgX7TcS5NNx93/e0wOkhTFhjETRYNymEI4EqzQamkGtHLXP2rqHEuF3EDnpZZTAU511+MUqTPI/IiIgQLwMf5OJVpDvXPY2JlOMVqhPVhs01JfAXp9dozldAMEWRdnZVxRp/6fO1bICVfQLmVWFmtCTwmb7cV+25XpLAOuRz5ujof4ESkODwBMkVh9Gdl7h3K6oEPMg3G69h/nO0n5huLl+YLl2FEVrUp+edn5eoiEK3ULgYXg826EzPLohilR2AaVQV57BU+wJe+0jjcDnoQXtCGyIDMDCn9n6tNmcT7lcjrqZhppRTsIyw4haeGT6ps6MWpzcp5NZZzLriuRcmO4wyclXFFE33U0Ha6KgRdG3ofekqy/lsFdj0NiiDezHdeb2muNKhGZSA92zNk5QYcpgFj/ijc9iGW4mEXnKUyK2vKrmg7k7M7B+dg0IMogg2xFs5Z2UEmpkEPOHcsN6QsUxUTZqn6DS4LFI89zdsFqVSQ8/1FOsJB4hRYiPwCYjRUVnZwQYH6A8BjLzwudKxcl5W5xytrjWKD6G3AR5dNLVZ2aKBa6UJUme+UL24p2NG6UZ9+nxXfrHXSVT0+wNWR0il1qWuXrjqgS1CNC3AcBx0mTIOn4ACa/mFlUjPE5UkoOcfK/aVQoZmaxosa5i7qiSD3OLshLS3v//C7+3dGRNBXzf3KZvDRjgj9x87M5pesfNkTjNdKWABdtihmZXOhUltV80F/MHSEkrlymetPWUbVOjmWktVc1AnVuF6gAwaB41pyqREQRdCLO53W8XcebHnSfjB6sOF4L++nt//5P+YANZoFi+eCpnH3LzQnWpsCSyL1zSqw62lwtm2aWmjVz31VGUjPthorEzbxYpljJoIXcyXSG3QkJwflKOs1JjUzsDJVenk13ZFX5UD2sJMHop+QvUrivKR6qphwO5l5wnlSWjqLBuA38586r6kgKy3txymQlU60aCXAXQE+GB7nBVEjuKihe6SZZ4trIGTIXB1mFRqHDcrCBmHj0H2rdVj4ofpcGYYmGASaRk8XxvKI4Z2FDdzSbIz2YkeoKNjRbGiMn7IyX5C/crs+H+CJKnhIZxb+rWTpGGKFeLTXXhujvaj9TuRNz+4kRgMJBzV6e1SzrpZi/nZCSs6xstNfCv2bWY2V64vA3HTHcQZ1thcaKRX8MYyiynoEX+HLovEaEJ/PE+A4Wp5H0pgpfa7MF5SgRf0krpoPioGhI5SwMl1PlSO5wFCyaC8WxltYioGVWWRZxcAFrHHdWTIT9cinr/G9jXCEiPzGRp2VpaOw//bbLNSK5SJ/YBeMN/0oCxrFWzs9WGaWQoULAZEsIaaRh2jTEOatRHvJZRdfqwxkKBoSqPMzxTWCg+mkl23cdJsQYyWsSlHJDyFbeWamKLOBgMGS546MZsdmZSvN+dJphNeLlrxyX1Qpdp82WT4BCJdvy9W4OM8arNyPU9QYbFYk88y3t1KpszsO9RPoB13QaC+xUUhiZQqvqkJjt1GYKisvb5tDgGuxMh4WgRufYJMuHFfp4YmbsA7BvAFs1xCPR+c7o6TBdV4h4NwMbZOGt9YL9xLNw6BKa7oNnSfwivhVTc2/0e0c6O/ZC+HEUHri5m6c8hM3zVuG5Bn2DbpDRY56j4Md+e0UPOiXb2LxVrv+blxy8KnjONNreI7uSsnuUt6I3CdohGx5+0uhYGeU1EyDWdHLPZkI9Fyy74M5B9vFYbLY8IN783ZDyafHQqYJYVuSYItREkXZ0fboUyFcvhtReoi/ZgjTkVkadjxv1e+A0ekjcROYpo6gmGktgV4E2xklxfQWlsJqjqPqw2CZLqPoStLqbpftjLpMF4CeF47IMznmr0wvjJJYue5royj+is7DSAv2nigzy0JAJFbGwCWS7na8lZbfgYhUOtYhR0wB0ESEMbcP+caxO6dlZTbpIQcB2NVVOM4hegVvrOnzzhs6wpb3cWFQOrf/mhbRyhpu4lCe223Ym5pGe7JNgwchDYLcP86LloP6TGK/teJ1Ntq4666/GjM8DR81WLkvp4DzKduFyApDLocW6v55ug1H3xklb6CQWdlh0z8hlM04PQwCfa4M47Bkg2+ElNpbk5XhybFZ7dUOR2l6EHWEy8mdWdoIxbsr0jjsPpDi7Q3DNKwOPfUC10eAMw+TaLO1UDpidq4tLNSjZA79ZO7tGodpvLUsdng0brYC8e6KI0NN3Bk4ZgTqCduW4YQQ7P9y/8F9/SwJIWka73SXZBgkGfDL6YU/noSS83NlyLCPFCBJeTNNFo3XVHyeVAQig9zFQN4Z1Wg+5Se4sMMQ9P7sznhCxMlutzmh2Cnl173e0iQG3mesjKd/4+ZhcpTwrWtlEjeBqZTIcChjZRTqg14oHfoRris6VViKkZUdx9EORojD9q2SpVN3/o8nomQuY+3lypSVr4lXLLeyg0T4E4Wf1NuhxEah21AZm+rrjjS3POyNpU0qS5JssG2V9IAd2sHJUZozYqaKnZqV4VA/cfzLER5co+ZpKhXuiROZYAftTmvhkqzt+fYa58rq8SZ46sV87mQk6hPKk1lRxfCNJuwVT2S3xQ2sO1OqxsW5ye2CVKrC51pazinGs73oxmXjPuyJhRY/EAY8GHt+62bmbKNRwLJCymcK0XOotNqLFYF8e0/AyvlM7B2LwJAjoPWIIa/tO1y97HzNt3AyNv3/8eWZvr3xHYbznJsm7xc656IHXxycg50GZe9eHHyZWY64HfxVSyZ28aNlZQGFvXiHEbCsPEzCFQ7tam94HJqqj31ydWrK9P/JGb+txx1vGMud+tdxfbfBWYKFXm4lzmvAFXPHGyZ4p642zqKd5/zOKFkyA3xnlJytvbYIXCAELCtfIGENbVVRi5hfW/kojYAZQHPQVauUyL7IqyoDKKc0C9N5XgOuGF2HNjRUXhwsrWS9H3GRWwqmqff0iVPjKnVJmJGdK58YWvvgBULAsvIFEpat6nAhMPt1r0O37KtxxcNVy3eoNpaV3yFh2qYUImBZuRAa+4NFoBwB3DVFSBK2z+AduOVFv5+/WlZ+P+VuW20RsAhYBCwCw4iAZeVhlIqtk0XAImARsAi8nwhYVn4/5W5bbRGwCFgELALDiMD/A5oWeaeDoNfcAAAAAElFTkSuQmCC&quot;&gt;" style="rounded=1;whiteSpace=wrap;html=1;" parent="WIyWlLk6GJQsqaUBKTNV-1" vertex="1">
          <mxGeometry x="1560" y="-195" width="650" height="60" as="geometry" />
        </mxCell>
        <mxCell id="oIUY9aex-8VRX2s5J3Bi-134" value="" style="endArrow=classic;html=1;rounded=0;edgeStyle=elbowEdgeStyle;entryX=0;entryY=0.5;entryDx=0;entryDy=0;exitX=1;exitY=0.5;exitDx=0;exitDy=0;" parent="WIyWlLk6GJQsqaUBKTNV-1" source="oIUY9aex-8VRX2s5J3Bi-16" target="oIUY9aex-8VRX2s5J3Bi-19" edge="1">
          <mxGeometry width="50" height="50" relative="1" as="geometry">
            <mxPoint x="1150" y="-135" as="sourcePoint" />
            <mxPoint x="1200" y="-185" as="targetPoint" />
          </mxGeometry>
        </mxCell>
        <mxCell id="oIUY9aex-8VRX2s5J3Bi-135" value="" style="endArrow=classic;html=1;rounded=0;edgeStyle=elbowEdgeStyle;entryX=0;entryY=0.5;entryDx=0;entryDy=0;exitX=1;exitY=0.5;exitDx=0;exitDy=0;" parent="WIyWlLk6GJQsqaUBKTNV-1" source="oIUY9aex-8VRX2s5J3Bi-16" target="oIUY9aex-8VRX2s5J3Bi-18" edge="1">
          <mxGeometry width="50" height="50" relative="1" as="geometry">
            <mxPoint x="1185" y="-255" as="sourcePoint" />
            <mxPoint x="1235" y="-305" as="targetPoint" />
          </mxGeometry>
        </mxCell>
        <mxCell id="yEXaIvPTRKwIhCIDsL8K-52" style="edgeStyle=none;rounded=0;orthogonalLoop=1;jettySize=auto;html=1;exitX=0.5;exitY=1;exitDx=0;exitDy=0;entryX=0.5;entryY=0;entryDx=0;entryDy=0;" parent="WIyWlLk6GJQsqaUBKTNV-1" source="oIUY9aex-8VRX2s5J3Bi-140" target="yEXaIvPTRKwIhCIDsL8K-51" edge="1">
          <mxGeometry relative="1" as="geometry" />
        </mxCell>
        <mxCell id="oIUY9aex-8VRX2s5J3Bi-140" value="F_WF_Reset" style="rounded=1;whiteSpace=wrap;html=1;" parent="WIyWlLk6GJQsqaUBKTNV-1" vertex="1">
          <mxGeometry x="160" y="-390" width="120" height="60" as="geometry" />
        </mxCell>
        <mxCell id="kC5EYQMPbJ4mH9MVDNyT-1" value="" style="endArrow=classic;html=1;rounded=0;edgeStyle=elbowEdgeStyle;entryX=0;entryY=0.5;entryDx=0;entryDy=0;" parent="WIyWlLk6GJQsqaUBKTNV-1" source="oIUY9aex-8VRX2s5J3Bi-58" target="oIUY9aex-8VRX2s5J3Bi-49" edge="1">
          <mxGeometry width="50" height="50" relative="1" as="geometry">
            <mxPoint x="1160" y="95" as="sourcePoint" />
            <mxPoint x="1210" y="45" as="targetPoint" />
          </mxGeometry>
        </mxCell>
        <mxCell id="kC5EYQMPbJ4mH9MVDNyT-2" value="" style="endArrow=classic;html=1;rounded=0;edgeStyle=elbowEdgeStyle;entryX=0;entryY=0.5;entryDx=0;entryDy=0;" parent="WIyWlLk6GJQsqaUBKTNV-1" target="oIUY9aex-8VRX2s5J3Bi-48" edge="1">
          <mxGeometry width="50" height="50" relative="1" as="geometry">
            <mxPoint x="2200" y="435" as="sourcePoint" />
            <mxPoint x="480" y="295" as="targetPoint" />
            <Array as="points">
              <mxPoint x="460" y="465" />
            </Array>
          </mxGeometry>
        </mxCell>
        <mxCell id="kC5EYQMPbJ4mH9MVDNyT-3" value="" style="endArrow=classic;html=1;rounded=0;edgeStyle=elbowEdgeStyle;entryX=0;entryY=0.75;entryDx=0;entryDy=0;" parent="WIyWlLk6GJQsqaUBKTNV-1" target="oIUY9aex-8VRX2s5J3Bi-2" edge="1">
          <mxGeometry width="50" height="50" relative="1" as="geometry">
            <mxPoint x="2200" y="585" as="sourcePoint" />
            <mxPoint x="451" y="265" as="targetPoint" />
            <Array as="points">
              <mxPoint x="400" y="555" />
            </Array>
          </mxGeometry>
        </mxCell>
        <mxCell id="yEXaIvPTRKwIhCIDsL8K-3" value="静止" style="text;strokeColor=none;fillColor=none;html=1;fontSize=24;fontStyle=1;verticalAlign=middle;align=center;" parent="WIyWlLk6GJQsqaUBKTNV-1" vertex="1">
          <mxGeometry x="1270" y="-390" width="100" height="40" as="geometry" />
        </mxCell>
        <mxCell id="yEXaIvPTRKwIhCIDsL8K-4" value="静止" style="text;strokeColor=none;fillColor=none;html=1;fontSize=24;fontStyle=1;verticalAlign=middle;align=center;" parent="WIyWlLk6GJQsqaUBKTNV-1" vertex="1">
          <mxGeometry x="530" y="-315" width="100" height="40" as="geometry" />
        </mxCell>
        <mxCell id="yEXaIvPTRKwIhCIDsL8K-7" value="等待静止" style="text;strokeColor=none;fillColor=none;html=1;fontSize=24;fontStyle=1;verticalAlign=middle;align=center;" parent="WIyWlLk6GJQsqaUBKTNV-1" vertex="1">
          <mxGeometry x="1270" y="230" width="100" height="40" as="geometry" />
        </mxCell>
        <mxCell id="yEXaIvPTRKwIhCIDsL8K-9" value="触发运动" style="text;strokeColor=none;fillColor=none;html=1;fontSize=24;fontStyle=1;verticalAlign=middle;align=center;" parent="WIyWlLk6GJQsqaUBKTNV-1" vertex="1">
          <mxGeometry x="1270" y="-140" width="100" height="40" as="geometry" />
        </mxCell>
        <mxCell id="yEXaIvPTRKwIhCIDsL8K-11" value="运动" style="text;strokeColor=none;fillColor=none;html=1;fontSize=24;fontStyle=1;verticalAlign=middle;align=center;" parent="WIyWlLk6GJQsqaUBKTNV-1" vertex="1">
          <mxGeometry x="530" y="-45" width="100" height="40" as="geometry" />
        </mxCell>
        <mxCell id="yEXaIvPTRKwIhCIDsL8K-13" value="静止" style="text;strokeColor=none;fillColor=none;html=1;fontSize=24;fontStyle=1;verticalAlign=middle;align=center;" parent="WIyWlLk6GJQsqaUBKTNV-1" vertex="1">
          <mxGeometry x="1520" y="-35" width="100" height="40" as="geometry" />
        </mxCell>
        <mxCell id="yEXaIvPTRKwIhCIDsL8K-14" value="完成等待, 已经静止" style="text;strokeColor=none;fillColor=none;html=1;fontSize=24;fontStyle=1;verticalAlign=middle;align=center;" parent="WIyWlLk6GJQsqaUBKTNV-1" vertex="1">
          <mxGeometry x="1230" y="-35" width="210" height="40" as="geometry" />
        </mxCell>
        <mxCell id="yEXaIvPTRKwIhCIDsL8K-16" value="仍是运动状态" style="text;strokeColor=none;fillColor=none;html=1;fontSize=24;fontStyle=1;verticalAlign=middle;align=center;" parent="WIyWlLk6GJQsqaUBKTNV-1" vertex="1">
          <mxGeometry x="1994" y="95" width="152" height="40" as="geometry" />
        </mxCell>
        <mxCell id="yEXaIvPTRKwIhCIDsL8K-17" value="运动结束, 恢复静止, 继续下一次" style="text;strokeColor=none;fillColor=none;html=1;fontSize=24;fontStyle=1;verticalAlign=middle;align=center;" parent="WIyWlLk6GJQsqaUBKTNV-1" vertex="1">
          <mxGeometry x="1895" y="-35" width="350" height="40" as="geometry" />
        </mxCell>
        <mxCell id="yEXaIvPTRKwIhCIDsL8K-18" value="等待静止" style="text;strokeColor=none;fillColor=none;html=1;fontSize=24;fontStyle=1;verticalAlign=middle;align=center;" parent="WIyWlLk6GJQsqaUBKTNV-1" vertex="1">
          <mxGeometry x="1994" y="225" width="152" height="40" as="geometry" />
        </mxCell>
        <mxCell id="yEXaIvPTRKwIhCIDsL8K-42" value="" style="endArrow=classic;html=1;rounded=0;entryX=0;entryY=0.5;entryDx=0;entryDy=0;exitX=1;exitY=0.5;exitDx=0;exitDy=0;" parent="WIyWlLk6GJQsqaUBKTNV-1" source="oIUY9aex-8VRX2s5J3Bi-80" target="oIUY9aex-8VRX2s5J3Bi-83" edge="1">
          <mxGeometry relative="1" as="geometry">
            <mxPoint x="1785" y="34.29" as="sourcePoint" />
            <mxPoint x="1885" y="34.29" as="targetPoint" />
          </mxGeometry>
        </mxCell>
        <mxCell id="yEXaIvPTRKwIhCIDsL8K-43" value="&lt;span style=&quot;font-size: 12px; text-wrap-mode: wrap; background-color: rgb(27, 29, 30);&quot;&gt;赋值&lt;/span&gt;&lt;div style=&quot;font-size: 12px; text-wrap-mode: wrap; background-color: rgb(27, 29, 30);&quot;&gt;Q_Record_Array&lt;/div&gt;" style="edgeLabel;resizable=0;html=1;;align=center;verticalAlign=middle;" parent="yEXaIvPTRKwIhCIDsL8K-42" connectable="0" vertex="1">
          <mxGeometry relative="1" as="geometry" />
        </mxCell>
        <mxCell id="yEXaIvPTRKwIhCIDsL8K-44" value="" style="endArrow=classic;html=1;rounded=0;entryX=0;entryY=0.5;entryDx=0;entryDy=0;exitX=1;exitY=0.5;exitDx=0;exitDy=0;" parent="WIyWlLk6GJQsqaUBKTNV-1" source="oIUY9aex-8VRX2s5J3Bi-49" target="oIUY9aex-8VRX2s5J3Bi-84" edge="1">
          <mxGeometry relative="1" as="geometry">
            <mxPoint x="1530" y="164.29" as="sourcePoint" />
            <mxPoint x="1910" y="164.29" as="targetPoint" />
          </mxGeometry>
        </mxCell>
        <mxCell id="yEXaIvPTRKwIhCIDsL8K-45" value="&lt;span style=&quot;font-size: 12px; text-wrap-mode: wrap; background-color: rgb(27, 29, 30);&quot;&gt;赋值&lt;/span&gt;&lt;div style=&quot;font-size: 12px; text-wrap-mode: wrap; background-color: rgb(27, 29, 30);&quot;&gt;Q_Record_Array&lt;/div&gt;" style="edgeLabel;resizable=0;html=1;;align=center;verticalAlign=middle;" parent="yEXaIvPTRKwIhCIDsL8K-44" connectable="0" vertex="1">
          <mxGeometry relative="1" as="geometry">
            <mxPoint x="124" as="offset" />
          </mxGeometry>
        </mxCell>
        <mxCell id="yEXaIvPTRKwIhCIDsL8K-46" value="" style="endArrow=classic;html=1;rounded=0;entryX=0;entryY=0.5;entryDx=0;entryDy=0;exitX=1;exitY=0.5;exitDx=0;exitDy=0;" parent="WIyWlLk6GJQsqaUBKTNV-1" source="oIUY9aex-8VRX2s5J3Bi-50" target="oIUY9aex-8VRX2s5J3Bi-87" edge="1">
          <mxGeometry relative="1" as="geometry">
            <mxPoint x="1520" y="265" as="sourcePoint" />
            <mxPoint x="1900" y="265" as="targetPoint" />
          </mxGeometry>
        </mxCell>
        <mxCell id="yEXaIvPTRKwIhCIDsL8K-47" value="&lt;span style=&quot;font-size: 12px; text-wrap-mode: wrap; background-color: rgb(27, 29, 30);&quot;&gt;赋值&lt;/span&gt;&lt;div style=&quot;font-size: 12px; text-wrap-mode: wrap; background-color: rgb(27, 29, 30);&quot;&gt;Q_Record_Array&lt;/div&gt;" style="edgeLabel;resizable=0;html=1;;align=center;verticalAlign=middle;" parent="yEXaIvPTRKwIhCIDsL8K-46" connectable="0" vertex="1">
          <mxGeometry relative="1" as="geometry">
            <mxPoint x="124" as="offset" />
          </mxGeometry>
        </mxCell>
        <mxCell id="yEXaIvPTRKwIhCIDsL8K-48" value="等待静止" style="text;strokeColor=none;fillColor=none;html=1;fontSize=24;fontStyle=1;verticalAlign=middle;align=center;" parent="WIyWlLk6GJQsqaUBKTNV-1" vertex="1">
          <mxGeometry x="504" y="230" width="152" height="40" as="geometry" />
        </mxCell>
        <mxCell id="yEXaIvPTRKwIhCIDsL8K-49" value="仍是运动状态" style="text;strokeColor=none;fillColor=none;html=1;fontSize=24;fontStyle=1;verticalAlign=middle;align=center;" parent="WIyWlLk6GJQsqaUBKTNV-1" vertex="1">
          <mxGeometry x="1244" y="95" width="152" height="40" as="geometry" />
        </mxCell>
        <mxCell id="yEXaIvPTRKwIhCIDsL8K-57" style="edgeStyle=none;rounded=0;orthogonalLoop=1;jettySize=auto;html=1;exitX=1;exitY=0.5;exitDx=0;exitDy=0;entryX=0;entryY=0.75;entryDx=0;entryDy=0;" parent="WIyWlLk6GJQsqaUBKTNV-1" source="yEXaIvPTRKwIhCIDsL8K-51" target="oIUY9aex-8VRX2s5J3Bi-1" edge="1">
          <mxGeometry relative="1" as="geometry" />
        </mxCell>
        <mxCell id="yEXaIvPTRKwIhCIDsL8K-51" value="write_imu_array_to_file" style="ellipse;whiteSpace=wrap;html=1;" parent="WIyWlLk6GJQsqaUBKTNV-1" vertex="1">
          <mxGeometry x="149" y="-259" width="140" height="60" as="geometry" />
        </mxCell>
        <mxCell id="yEXaIvPTRKwIhCIDsL8K-54" value="静止" style="text;strokeColor=none;fillColor=none;html=1;fontSize=24;fontStyle=1;verticalAlign=middle;align=center;" parent="WIyWlLk6GJQsqaUBKTNV-1" vertex="1">
          <mxGeometry x="170" y="-430" width="100" height="40" as="geometry" />
        </mxCell>
        <mxCell id="yEXaIvPTRKwIhCIDsL8K-55" value="现在是运动, 判断是否静止" style="text;strokeColor=none;fillColor=none;html=1;fontSize=24;fontStyle=1;verticalAlign=middle;align=center;" parent="WIyWlLk6GJQsqaUBKTNV-1" vertex="1">
          <mxGeometry x="780" y="95" width="280" height="40" as="geometry" />
        </mxCell>
        <mxCell id="yEXaIvPTRKwIhCIDsL8K-56" value="现在是静止, 判断是否运动" style="text;strokeColor=none;fillColor=none;html=1;fontSize=24;fontStyle=1;verticalAlign=middle;align=center;" parent="WIyWlLk6GJQsqaUBKTNV-1" vertex="1">
          <mxGeometry x="780" y="-315" width="280" height="40" as="geometry" />
        </mxCell>
        <mxCell id="r36albHJPElByUC2Oe_I-1" style="edgeStyle=orthogonalEdgeStyle;rounded=0;orthogonalLoop=1;jettySize=auto;html=1;exitX=0.5;exitY=1;exitDx=0;exitDy=0;" edge="1" parent="WIyWlLk6GJQsqaUBKTNV-1" source="r36albHJPElByUC2Oe_I-0" target="oIUY9aex-8VRX2s5J3Bi-140">
          <mxGeometry relative="1" as="geometry" />
        </mxCell>
        <mxCell id="r36albHJPElByUC2Oe_I-0" value="WF_Status" style="rhombus;whiteSpace=wrap;html=1;" vertex="1" parent="WIyWlLk6GJQsqaUBKTNV-1">
          <mxGeometry x="180" y="-550" width="80" height="80" as="geometry" />
        </mxCell>
      </root>
    </mxGraphModel>
  </diagram>
</mxfile>
